{"accessors" : [{"bufferView" : 0, "byteOffset" : 0, "componentType" : 5123, "count" : 180, "type" : "SCALAR", "max" : [142], "min" : [0]}, {"bufferView" : 1, "byteOffset" : 0, "componentType" : 5126, "count" : 143, "type" : "VEC3", "max" : [14.634099960327148, 3.2172999382019043, 4.310180187225342], "min" : [-14.736100196838379, -21.62459945678711, -4.310180187225342], "name" : "POSITION"}, {"bufferView" : 1, "byteOffset" : 12, "componentType" : 5126, "count" : 143, "type" : "VEC2", "max" : [1, -0], "min" : [0, -0.8758010268211365], "name" : "TEXCOORD_0"}, {"bufferView" : 1, "byteOffset" : 20, "componentType" : 5126, "count" : 143, "type" : "VEC3", "max" : [1.0000044107437134, 1.0000044107437134, 1.0000044107437134], "min" : [-1.0000044107437134, -1.0000044107437134, -1.0000044107437134], "name" : "NORMAL"}, {"bufferView" : 0, "byteOffset" : 360, "componentType" : 5123, "count" : 180, "type" : "SCALAR", "max" : [143], "min" : [0]}, {"bufferView" : 2, "byteOffset" : 0, "componentType" : 5126, "count" : 144, "type" : "VEC3", "max" : [22.027599334716797, 32.587398529052734, 4.310180187225342], "min" : [-22.027599334716797, -32.587398529052734, -4.310180187225342], "name" : "POSITION"}, {"bufferView" : 2, "byteOffset" : 12, "componentType" : 5126, "count" : 144, "type" : "VEC2", "max" : [0.8165779709815979, -0], "min" : [0, -1], "name" : "TEXCOORD_0"}, {"bufferView" : 2, "byteOffset" : 20, "componentType" : 5126, "count" : 144, "type" : "VEC3", "max" : [1.0000044107437134, 1.0000044107437134, 1.0000044107437134], "min" : [-1.0000044107437134, -1.0000044107437134, -1.0000044107437134], "name" : "NORMAL"}, {"bufferView" : 0, "byteOffset" : 720, "componentType" : 5123, "count" : 204, "type" : "SCALAR", "max" : [161], "min" : [0]}, {"bufferView" : 3, "byteOffset" : 0, "componentType" : 5126, "count" : 162, "type" : "VEC3", "max" : [14.634099960327148, 25.24489974975586, 4.310180187225342], "min" : [-14.736100196838379, 6.888559818267822, -4.310180187225342], "name" : "POSITION"}, {"bufferView" : 3, "byteOffset" : 12, "componentType" : 5126, "count" : 162, "type" : "VEC2", "max" : [0.9506739974021912, -0], "min" : [0, -1], "name" : "TEXCOORD_0"}, {"bufferView" : 3, "byteOffset" : 20, "componentType" : 5126, "count" : 162, "type" : "VEC3", "max" : [1.0000044107437134, 1.0000044107437134, 1.0000044107437134], "min" : [-1.0000044107437134, -1.0000044107437134, -1.0000044107437134], "name" : "NORMAL"}], "asset" : {"generator" : "Aspose.3D 23.9.0", "version" : "2.0"}, "buffers" : [{"uri" : "data:application/octet-stream;base64,", "byteLength" : 19192}], "bufferViews" : [{"buffer" : 0, "byteOffset" : 0, "byteLength" : 1128, "target" : 34963}, {"buffer" : 0, "byteOffset" : 1132, "byteLength" : 5760, "byteStride" : 32, "target" : 34962}, {"buffer" : 0, "byteOffset" : 6896, "byteLength" : 5760, "byteStride" : 32, "target" : 34962}, {"buffer" : 0, "byteOffset" : 12660, "byteLength" : 6528, "byteStride" : 32, "target" : 34962}], "materials" : [{"name" : "material0", "pbrMetallicRoughness" : {"baseColorFactor" : [0.375, 0.214844, 0.683594, 1], "metallicFactor" : 0, "roughnessFactor" : 0}, "emissiveFactor" : [0, 0, 0], "alphaMode" : "OPAQUE", "doubleSided" : false}, {"name" : "material1", "pbrMetallicRoughness" : {"baseColorFactor" : [0.375, 0.214844, 0.683594, 1], "metallicFactor" : 0, "roughnessFactor" : 0}, "emissiveFactor" : [0, 0, 0], "alphaMode" : "OPAQUE", "doubleSided" : false}, {"name" : "material2", "pbrMetallicRoughness" : {"baseColorFactor" : [0.375, 0.214844, 0.683594, 1], "metallicFactor" : 0, "roughnessFactor" : 0}, "emissiveFactor" : [0, 0, 0], "alphaMode" : "OPAQUE", "doubleSided" : false}], "meshes" : [{"primitives" : [{"attributes" : {"POSITION" : 1, "TEXCOORD_0" : 2, "NORMAL" : 3}, "indices" : 0, "material" : 0, "mode" : 4}], "name" : ""}, {"primitives" : [{"attributes" : {"POSITION" : 5, "TEXCOORD_0" : 6, "NORMAL" : 7}, "indices" : 4, "material" : 1, "mode" : 4}], "name" : ""}, {"primitives" : [{"attributes" : {"POSITION" : 9, "TEXCOORD_0" : 10, "NORMAL" : 11}, "indices" : 8, "material" : 2, "mode" : 4}], "name" : ""}], "nodes" : [{"mesh" : 0, "name" : "groupNumber_0"}, {"mesh" : 1, "name" : "groupNumber_1"}, {"mesh" : 2, "name" : "groupNumber_2"}], "scene" : 0, "scenes" : [{"nodes" : [0, 1, 2]}]}