<?xml version="1.0" encoding="UTF-8"?>
<svg id="Layer_1" data-name="Layer 1" xmlns="http://www.w3.org/2000/svg" viewBox="0 0 781.87 781.87">
  <defs>
    <style>
      .cls-1 {
        fill: #fff;
        stroke-width: 0px;
      }
    </style>
  </defs>
  <path class="cls-1" d="m390.94,740.8c13.09.01,25.65-5.18,34.91-14.43l197.39-197.39c19.27-19.27,19.27-50.51,0-69.78l-.04-.04c-19.27-19.27-50.51-19.27-69.78,0l-113.14,113.14V99.34c0-27.25-22.09-49.34-49.34-49.34h0c-27.25,0-49.34,22.09-49.34,49.34v472.95l-113.14-113.14c-19.27-19.27-50.51-19.27-69.78,0l-.04.04c-19.27,19.27-19.27,50.51,0,69.78l197.39,197.39c9.26,9.25,21.82,14.44,34.91,14.43Z"/>
</svg>