<?xml version="1.0" encoding="utf-8"?>
<!-- Generator: Adobe Illustrator 27.8.0, SVG Export Plug-In . SVG Version: 6.00 Build 0)  -->
<svg version="1.1" id="Layer_1" xmlns="http://www.w3.org/2000/svg" xmlns:xlink="http://www.w3.org/1999/xlink" x="0px" y="0px"
	 viewBox="0 0 1000 1000" style="enable-background:new 0 0 1000 1000;" xml:space="preserve">
<style type="text/css">
	.st0{opacity:0.65;fill:#FFFFFF;}
</style>
<path class="st0" d="M634.2,633.7c14.9,13.8,34.8,20.9,55,19.6c15.9,0.4,31.4-4.4,44.3-13.7c10.5-6.8,18.4-16.9,22.5-28.6h74.8
	c-8,33.5-27.4,63.1-55,83.8c-26.5,17.6-57.7,26.5-89.4,25.5c-22.6,0.3-45.1-4-66.1-12.5c-19-7.9-36-19.9-49.9-35
	c-13.8-15.9-24.4-34.3-31.2-54.2c-7.7-22.3-11.4-45.7-11.1-69.2c-0.1-23.1,3.7-46.1,11.5-68c21.4-62.9,80.8-105,147.2-104.3
	c23.9-0.5,47.6,5.1,68.7,16.3c19.1,10.5,35.6,25.2,48.3,43c12.9,18.7,22.2,39.6,27.3,61.7c5.6,23.8,7.6,48.2,5.9,72.6H614.3
	C612.5,593.3,619.6,616,634.2,633.7z M344.3,262.2c18.8-0.3,37.5,1.6,55.8,5.7c15.4,3.4,30,9.6,43.1,18.5
	c12.1,8.8,21.6,20.6,27.7,34.2c7,16.8,10.3,34.8,9.9,52.9c0.8,19.9-4.3,39.7-14.6,56.7c-10.9,16.1-25.9,29-43.5,37.2
	c23.9,6.4,44.7,21.2,58.6,41.6c13.4,21.6,20.2,46.7,19.4,72.2c0.5,20.3-3.7,40.4-12.2,58.8c-7.9,16.1-19.4,30.1-33.6,40.9
	c-14.7,10.7-31.2,18.6-48.7,23.3c-18.2,5-36.9,7.6-55.8,7.5h-207V262.2H344.3z M337.5,635.4c8.9,0.1,17.8-0.8,26.5-2.9
	c7.9-1.7,15.5-5,22.2-9.6c6.6-4.6,11.9-10.7,15.5-17.9c4.1-9.2,6-19.2,5.5-29.2c1.8-18.5-5-36.8-18.6-49.6
	c-14.2-10.4-31.5-15.6-49.1-14.6H237v123.8C237,635.4,337.5,635.4,337.5,635.4z M732,462.7c-12.6-12.6-30.1-19.1-47.9-17.9
	c-11.7-0.5-23.3,2.1-33.6,7.5c-8.2,4.5-15.5,10.6-21.4,17.9c-5.2,6.8-9.1,14.6-11.5,22.9c-2.1,6.9-3.5,14-4,21.2h138
	C750.5,495.6,743.6,477.6,732,462.7C732,462.8,732,462.7,732,462.7z M332.3,444c14.7,0.6,29.3-3.8,41.2-12.5
	c11.5-10.3,17.6-25.5,16.2-40.9c0.4-8.9-1.4-17.7-5.2-25.8c-3.2-6.4-8.2-11.8-14.3-15.4c-6.2-4-13.2-6.7-20.6-7.9
	c-8-1.6-16.1-2.3-24.2-2.1H237v105.1h95.3C332.3,444.4,332.3,444,332.3,444z M768.8,292.2H595.9v44.2h172.9V292.2z"/>
</svg>
