<?xml version="1.0" encoding="utf-8"?>
<!-- Generator: Adobe Illustrator 27.8.0, SVG Export Plug-In . SVG Version: 6.00 Build 0)  -->
<svg version="1.1" id="Layer_1" xmlns="http://www.w3.org/2000/svg" xmlns:xlink="http://www.w3.org/1999/xlink" x="0px" y="0px"
	 viewBox="0 0 1000 1000" style="enable-background:new 0 0 1000 1000;" xml:space="preserve">
<style type="text/css">
	.st0{opacity:0.65;fill:#FFFFFF;}
</style>
<path class="st0" d="M491,208.4c92.2,0,103.2,0.3,139.6,2c93.6,4.3,137.3,48.7,141.6,141.6c1.7,36.4,2,47.3,2,139.6
	c0,92.2-0.3,103.2-2,139.6c-4.3,92.8-47.9,137.3-141.6,141.6c-36.4,1.7-47.3,2-139.6,2c-92.2,0-103.2-0.3-139.6-2
	c-93.8-4.3-137.3-48.9-141.6-141.6c-1.7-36.4-2-47.3-2-139.6c0-92.2,0.4-103.1,2-139.6c4.3-92.9,47.9-137.3,141.6-141.6
	C387.9,208.7,398.8,208.4,491,208.4z M491,146.1c-93.8,0-105.5,0.4-142.4,2.1c-125.4,5.8-195.1,75.3-200.9,200.9
	c-1.7,36.9-2.1,48.6-2.1,142.4s0.4,105.6,2.1,142.4C153.5,759.3,223,829,348.6,834.8c36.9,1.7,48.6,2.1,142.4,2.1
	s105.6-0.4,142.4-2.1c125.3-5.8,195.2-75.3,200.9-200.9c1.7-36.8,2.1-48.6,2.1-142.4S836,386,834.3,349.1
	C828.7,223.8,759,154,633.4,148.2C596.6,146.5,584.8,146.1,491,146.1z M491,314.2c-97.9,0-177.3,79.4-177.3,177.3
	S393.1,668.9,491,668.9s177.3-79.4,177.3-177.4C668.3,393.6,588.9,314.2,491,314.2z M491,606.6c-63.6,0-115.1-51.5-115.1-115.1
	c0-63.6,51.5-115.1,115.1-115.1s115.1,51.5,115.1,115.1C606.1,555.1,554.6,606.6,491,606.6z M675.4,265.7
	c-22.9,0-41.5,18.6-41.5,41.4c0,22.9,18.6,41.4,41.5,41.4c22.9,0,41.4-18.6,41.4-41.4C716.8,284.3,698.3,265.7,675.4,265.7z"/>
</svg>
