<?xml version="1.0" encoding="utf-8"?>
<!-- Generator: Adobe Illustrator 27.8.0, SVG Export Plug-In . SVG Version: 6.00 Build 0)  -->
<svg version="1.1" id="Layer_1" xmlns="http://www.w3.org/2000/svg" xmlns:xlink="http://www.w3.org/1999/xlink" x="0px" y="0px"
	 viewBox="0 0 1000 1000" style="enable-background:new 0 0 1000 1000;" xml:space="preserve">
<style type="text/css">
	.st0{opacity:0.65;fill:#FFFFFF;}
</style>
<path d="M-494.5,967.7c-2.9,0.8-5.9,1.4-8.9,1.9C-500.4,969.1-497.4,968.4-494.5,967.7z"/>
<path d="M-491.6-23.8c1.9,0.5,3.8,1.1,5.7,1.8C-487.7-22.7-489.6-23.3-491.6-23.8z"/>
<path d="M-503.4-26.6c3,0.5,6,1.2,8.9,1.9C-497.4-25.4-500.4-26-503.4-26.6z"/>
<path class="st0" d="M692.5,146.1H289.5c-79.5,0-143.9,64.4-143.9,143.9V693c0,79.5,64.4,143.9,143.9,143.9h402.9
	c79.5,0,143.9-64.4,143.9-143.9V290C836.4,210.6,772,146.1,692.5,146.1z M375.9,693h-86.3V376.4h86.3V693z M332.7,339.9
	c-27.8,0-50.4-22.7-50.4-50.8c0-28,22.6-50.8,50.4-50.8s50.4,22.7,50.4,50.8C383.1,317.1,360.5,339.9,332.7,339.9z M721.2,693h-86.3
	V531.7c0-96.9-115.1-89.6-115.1,0V693h-86.3V376.4h86.3v50.8c40.2-74.4,201.5-79.9,201.5,71.3V693z"/>
</svg>
