<svg width="1395" height="514" viewBox="0 0 1395 514" fill="none" xmlns="http://www.w3.org/2000/svg">
<path d="M297.717 20.7421C319.464 20.7421 337.059 39.2476 337.059 62.0036V348.242C337.059 360.217 332.117 371.621 323.467 379.448L209.839 482.55C195.06 495.975 173.116 495.975 158.337 482.55L44.7089 379.448C36.0595 371.621 31.1169 360.217 31.1169 348.242V62.0036C31.1169 39.1958 48.7617 20.7421 70.4594 20.7421H297.717Z" stroke="white" stroke-width="35.2611" stroke-miterlimit="10"/>
<path d="M269.649 207.418V88.1528H255.224L181.496 159.733L107.768 88.1528H93.3433V207.418" stroke="white" stroke-width="35.2611" stroke-miterlimit="10"/>
<path d="M181.35 409.651L93.3433 333.477V259.273H269.649V333.477L181.35 409.651Z" stroke="white" stroke-width="35.2611" stroke-miterlimit="10"/>
<g clip-path="url(#clip0_1200_1800)">
<path d="M534.966 221.332C525.364 221.332 517.452 224.622 511.228 231.201C505.005 237.958 501.893 246.226 501.893 256.006C501.893 265.607 505.005 273.787 511.228 280.543C517.452 287.3 525.364 290.679 534.966 290.679C544.39 290.679 552.214 287.3 558.437 280.543C561.282 277.343 563.505 273.698 565.105 269.608C566.705 265.341 567.506 260.806 567.506 256.006C567.506 251.027 566.705 246.493 565.105 242.403C563.505 238.313 561.282 234.579 558.437 231.201C552.214 224.622 544.39 221.332 534.966 221.332ZM532.032 186.126C543.59 186.126 553.458 189.415 561.638 195.994C562.705 196.528 563.683 197.239 564.572 198.128C565.638 198.839 566.616 199.639 567.506 200.529V135.983H602.979V322.685H571.506V309.349C570.617 310.238 569.728 311.127 568.839 312.016C567.95 312.727 567.061 313.439 566.172 314.15C557.104 321.973 545.724 325.885 532.032 325.885C513.006 325.885 497.181 319.128 484.557 305.615C471.932 292.101 465.62 275.565 465.62 256.006C465.62 236.446 471.932 219.91 484.557 206.396C497.181 192.883 513.006 186.126 532.032 186.126ZM758.116 269.341L665.565 269.341C666.455 272.186 667.699 274.854 669.3 277.343C671.078 279.832 673.122 281.966 675.434 283.744C681.124 288.189 687.703 290.412 695.171 290.412C707.084 290.412 716.419 287.034 723.176 280.277L747.981 305.615C734.645 319.128 717.042 325.885 695.171 325.885C675.967 325.885 659.52 319.04 645.828 305.348C631.959 291.657 625.025 275.209 625.025 256.006C625.025 236.624 631.692 220.088 645.028 206.396C658.009 192.883 674.189 186.126 693.571 186.126C711.885 186.126 727.355 192.883 739.979 206.396C752.071 219.377 758.116 235.913 758.116 256.006V269.341ZM692.771 219.999C685.48 219.999 679.168 222.133 673.834 226.4C669.566 230.312 666.543 235.113 664.765 240.803H718.909C717.131 234.579 714.197 229.601 710.107 225.867C705.484 221.955 699.705 219.999 692.771 219.999ZM869.583 214.665L836.243 226.133C835.176 223.466 833.398 221.421 830.909 219.999C828.597 218.576 825.841 217.865 822.641 217.865C818.551 217.865 815.35 218.843 813.039 220.799C810.55 222.755 809.394 225.244 809.572 228.267C809.749 232.357 813.839 235.291 821.841 237.069C823.796 237.424 825.575 237.78 827.175 238.136C828.775 238.491 830.109 238.847 831.176 239.202C842.378 241.692 851.268 245.781 857.847 251.471C867.627 259.829 872.517 270.497 872.517 283.477C872.339 297.169 866.827 308.015 855.98 316.017C847.445 322.596 836.154 325.885 822.107 325.885C810.372 325.707 799.881 323.129 790.635 318.151C781.566 313.172 775.165 305.882 771.431 296.28L805.037 284.278C807.882 290.501 813.039 293.613 820.507 293.613C825.663 293.613 829.575 292.546 832.242 290.412C835.087 288.1 836.421 285.255 836.243 281.877C836.065 277.61 830.909 274.231 820.774 271.742C819.351 271.386 817.84 271.031 816.239 270.675C814.817 270.142 813.395 269.697 811.972 269.341C806.104 268.097 800.77 266.23 795.969 263.74C791.346 261.251 787.345 258.139 783.967 254.405C777.388 247.115 774.009 238.313 773.832 228C773.832 214.842 778.544 204.618 787.968 197.328C797.569 190.038 808.949 186.304 822.107 186.126C834.021 185.948 844.067 188.437 852.246 193.594C859.892 198.395 865.671 205.418 869.583 214.665ZM898.49 322.685V189.326H934.23V322.685H898.49ZM937.698 147.985C937.698 153.853 935.653 158.832 931.563 162.922C927.296 167.189 922.228 169.323 916.36 169.323C910.67 169.323 905.692 167.189 901.424 162.922C897.157 158.654 895.023 153.675 895.023 147.985C895.023 142.118 897.157 137.05 901.424 132.783C905.514 128.693 910.492 126.648 916.36 126.648C922.406 126.648 927.473 128.693 931.563 132.783C935.653 136.872 937.698 141.94 937.698 147.985ZM1025.61 186.393C1039.66 186.393 1051.31 190.66 1060.55 199.195C1061.27 199.906 1061.98 200.706 1062.69 201.595C1063.58 202.307 1064.38 203.018 1065.09 203.729V189.593L1096.56 189.593V308.015C1096.74 330.242 1090.78 347.756 1078.69 360.558C1066.6 373.361 1050.42 379.762 1030.15 379.762C1019.3 379.762 1010.23 379.051 1002.94 377.628C995.653 376.206 989.518 374.25 984.54 371.761C979.739 369.449 975.382 366.871 971.471 364.026L988.007 335.22C994.586 339.488 1000.9 342.422 1006.94 344.022C1013.17 345.8 1020.37 346.689 1028.55 346.689C1039.39 346.689 1047.48 343.222 1052.82 336.287C1054.95 333.62 1056.64 330.686 1057.89 327.486C1059.13 324.285 1059.93 320.818 1060.29 317.084C1060.29 316.195 1060.29 315.483 1060.29 314.95C1060.29 314.416 1060.29 313.705 1060.29 312.816C1059.93 313.35 1059.49 313.883 1058.95 314.416C1058.6 314.772 1058.24 315.128 1057.89 315.483C1049.35 322.596 1038.59 326.152 1025.61 326.152C1006.59 326.152 990.763 319.395 978.138 305.882C965.514 292.19 959.202 275.654 959.202 256.272C959.202 236.713 965.514 220.177 978.138 206.663C990.763 193.149 1006.59 186.393 1025.61 186.393ZM1028.55 221.599C1018.95 221.599 1011.03 224.978 1004.81 231.734C998.587 238.313 995.475 246.493 995.475 256.272C995.475 265.874 998.587 274.053 1004.81 280.81C1011.03 287.567 1018.95 290.945 1028.55 290.945C1037.97 290.945 1045.71 287.567 1051.75 280.81C1054.77 277.432 1057.09 273.698 1058.69 269.608C1060.29 265.518 1061.09 261.073 1061.09 256.272C1061.09 251.294 1060.29 246.848 1058.69 242.936C1057.09 238.847 1054.77 235.113 1051.75 231.734C1045.71 224.978 1037.97 221.599 1028.55 221.599ZM1250.63 322.685L1215.16 322.685V252.005C1215.16 242.759 1212.58 235.468 1207.42 230.134C1202.44 224.444 1196.13 221.599 1188.49 221.599C1180.66 221.599 1174.17 224.444 1169.02 230.134C1163.86 235.646 1161.28 242.936 1161.28 252.005V322.685H1125.81V189.326H1159.15V201.862C1159.86 201.151 1160.57 200.44 1161.28 199.728C1161.99 199.017 1162.7 198.306 1163.41 197.595C1171.42 189.949 1181.91 186.126 1194.89 186.126C1211.78 186.126 1225.38 192.349 1235.69 204.796C1240.67 211.019 1244.41 218.221 1246.9 226.4C1249.39 234.402 1250.63 243.381 1250.63 253.338V322.685ZM1369.94 214.665L1336.6 226.133C1335.53 223.466 1333.75 221.421 1331.26 219.999C1328.95 218.576 1326.2 217.865 1322.99 217.865C1318.9 217.865 1315.7 218.843 1313.39 220.799C1310.9 222.755 1309.75 225.244 1309.93 228.267C1310.1 232.357 1314.19 235.291 1322.19 237.069C1324.15 237.424 1325.93 237.78 1327.53 238.136C1329.13 238.491 1330.46 238.847 1331.53 239.202C1342.73 241.692 1351.62 245.781 1358.2 251.471C1367.98 259.829 1372.87 270.497 1372.87 283.477C1372.69 297.169 1367.18 308.015 1356.33 316.017C1347.8 322.596 1336.51 325.885 1322.46 325.885C1310.73 325.707 1300.23 323.129 1290.99 318.151C1281.92 313.172 1275.52 305.882 1271.78 296.28L1305.39 284.278C1308.24 290.501 1313.39 293.613 1320.86 293.613C1326.02 293.613 1329.93 292.546 1332.6 290.412C1335.44 288.1 1336.77 285.255 1336.6 281.877C1336.42 277.61 1331.26 274.231 1321.13 271.742C1319.71 271.386 1318.19 271.031 1316.59 270.675C1315.17 270.142 1313.75 269.697 1312.33 269.341C1306.46 268.097 1301.12 266.23 1296.32 263.74C1291.7 261.251 1287.7 258.139 1284.32 254.405C1277.74 247.115 1274.36 238.313 1274.19 228C1274.19 214.842 1278.9 204.618 1288.32 197.328C1297.92 190.038 1309.3 186.304 1322.46 186.126C1334.37 185.948 1344.42 188.437 1352.6 193.594C1360.25 198.395 1366.02 205.418 1369.94 214.665Z" fill="white"/>
</g>
<defs>
<clipPath id="clip0_1200_1800">
<rect width="946.6" height="512.445" fill="white" transform="translate(448.395 0.457489)"/>
</clipPath>
</defs>
</svg>
