<svg width="314" height="208" viewBox="0 0 314 208" fill="none" xmlns="http://www.w3.org/2000/svg">
<g clip-path="url(#clip0_1205_1853)">
<path d="M30.4263 45.3465H29.5447C29.4928 45.3206 29.4433 45.2829 29.3891 45.2688L14.8001 41.1695C13.8336 40.8984 13.8312 40.9102 13.7581 39.8706L10.4321 2.20639C10.326 1.02069 11.2594 0 12.4499 0H47.5188C48.7092 0.00235726 49.6427 1.02069 49.5366 2.20639L46.1704 40.4859C46.1468 40.7923 46.0313 40.929 45.7225 41.0139L30.4287 45.3442L30.4263 45.3465ZM36.3006 23.0823L35.6146 29.5812C35.5816 29.8971 35.4637 30.0645 35.1384 30.1493L30.2589 31.4599C30.0845 31.5071 29.8747 31.5095 29.6979 31.4599L24.8207 30.147C24.5025 30.0645 24.4012 29.9042 24.3752 29.6095L24.0947 26.2976C24.0735 25.9393 23.9839 25.8143 23.6138 25.8237L19.0525 25.8308L19.7314 33.5697C19.7526 33.8078 19.8304 33.9209 20.0732 33.9893L29.6838 36.6553C29.8558 36.7025 30.0633 36.7143 30.2354 36.6671L39.8482 34.0081C40.1264 33.9327 40.2301 33.8148 40.2537 33.5414L42.486 8.35176H17.4897L17.8079 13.0568H37.095C36.9818 14.6551 36.8687 16.2156 36.7673 17.7784C36.7508 18.0189 36.673 18.1202 36.4255 18.1179H18.2134L18.8003 23.0775H36.3029L36.3006 23.0823Z" fill="#D9D9D9"/>
<path d="M137.087 3.19461L128.049 0.101886C127.45 -0.103195 126.781 0.00523836 126.276 0.391828L105.905 16.011L95.5991 9.78785C95.071 9.46726 94.4204 9.42248 93.8523 9.67235L90.0477 11.3366C89.3547 11.6383 88.9092 12.3243 88.9092 13.0786V32.104C88.9092 32.8583 89.3571 33.5443 90.0477 33.846L93.8523 35.5102C94.4181 35.7601 95.0687 35.713 95.5991 35.3947L105.903 29.1716L126.274 44.7908C126.611 45.05 127.019 45.1821 127.431 45.1821C127.639 45.1821 127.846 45.1467 128.047 45.0783L137.084 41.9856C137.855 41.724 138.372 41.0003 138.372 40.1847V4.99319C138.372 4.17994 137.853 3.45626 137.084 3.19225L137.087 3.19461ZM96.5184 25.9516V19.231L102.079 22.5901L96.5184 25.9492V25.9516ZM126.958 31.5665L113.712 22.5925L126.958 13.6184V31.5665Z" fill="#D9D9D9"/>
<path d="M216.679 0.0848612C216.493 0.0212153 216.293 0 216.095 0H179.647C179.392 0 179.135 0.0400734 178.9 0.141435C178.089 0.485595 177.66 1.29178 177.747 2.09089L181.896 39.4369C181.978 40.1959 182.516 40.83 183.251 41.0398L197.343 45.066C197.513 45.1155 197.687 45.1391 197.861 45.1391C198.036 45.1391 198.21 45.1155 198.38 45.066L212.472 41.0398C213.207 40.83 213.742 40.1959 213.827 39.4369L217.978 2.09089C218.075 1.24463 217.587 0.391305 216.682 0.0848612H216.679ZM208.469 13.9974H191.645L192.044 18.7873H208.064L206.861 32.9356L197.869 35.7949L197.779 35.7667L188.887 32.9309L188.402 27.165H192.758L192.949 29.4044L197.918 30.4982L202.8 29.4021L203.319 23.3486H188.076L186.898 9.41724H208.863L208.471 13.995L208.469 13.9974Z" fill="#D9D9D9"/>
<path d="M271.612 23.0303C271.612 25.1071 273.269 26.7854 275.344 26.7854H279.193V19.2988H275.344C273.267 19.2988 271.612 20.9772 271.612 23.0303Z" fill="#D9D9D9"/>
<path d="M271.612 33.0603C271.612 35.1135 273.293 36.7918 275.367 36.7918C277.442 36.7918 279.193 35.0899 279.193 32.9896V29.3264H275.344C273.267 29.3264 271.612 30.9835 271.612 33.0579V33.0603Z" fill="#D9D9D9"/>
<path d="M271.612 13.0238C271.612 15.0769 273.269 16.7553 275.344 16.7553H279.193V9.28986H275.344C273.267 9.28986 271.612 10.9682 271.612 13.0214V13.0238Z" fill="#D9D9D9"/>
<path d="M295.307 0H265.624C261.056 0 257.355 3.70325 257.355 8.26926V36.8699C257.355 41.4382 261.058 45.1391 265.624 45.1391H295.307C299.875 45.1391 303.576 41.4359 303.576 36.8699V8.26926C303.576 3.70089 299.873 0 295.307 0ZM291.882 23.0304C291.882 26.505 289.06 29.329 285.607 29.329H285.468C284.115 29.329 282.809 28.8858 281.736 28.0938V32.9922C281.736 36.4903 278.891 39.3379 275.369 39.3379C271.847 39.3379 269.047 36.5163 269.047 33.0629C269.047 31.0804 269.98 29.2371 271.543 28.0466C269.98 26.8562 269.047 25.0152 269.047 23.0328C269.047 21.0503 269.98 19.2305 271.543 18.0165C269.98 16.8497 269.047 15.0087 269.047 13.0238C269.047 9.57282 271.869 6.74883 275.346 6.74883H285.609C289.062 6.74883 291.884 9.57046 291.884 13.0238C291.884 15.0063 290.974 16.8497 289.388 18.0165C290.974 19.2305 291.884 21.0715 291.884 23.0328L291.882 23.0304Z" fill="#D9D9D9"/>
<path d="M285.61 19.2988H285.471C283.418 19.2988 281.739 20.9772 281.739 23.0303C281.739 25.0835 283.418 26.7854 285.471 26.7854H285.61C287.663 26.7854 289.341 25.1071 289.341 23.0303C289.341 20.9536 287.663 19.2988 285.61 19.2988Z" fill="#D9D9D9"/>
<path d="M285.61 9.29233H281.737V16.7578H285.61C287.663 16.7578 289.341 15.0794 289.341 13.0262C289.341 10.9731 287.663 9.29468 285.61 9.29468V9.29233Z" fill="#D9D9D9"/>
<path d="M19.988 110.548C20.2261 113.433 21.1101 116.113 22.7932 118.459C27.9014 125.568 35.0627 127.73 43.3178 126.254C50.6725 124.939 55.8844 120.663 57.8833 113.268C59.8634 105.947 57.6122 99.9025 51.5965 95.2705C46.1395 91.0699 40.6942 86.8551 35.2301 82.6639C34.3367 81.9779 33.3726 81.3981 32.1845 81.3509C30.9069 81.2991 29.8084 81.7045 29.2497 82.8761C28.6745 84.083 29.4972 84.9151 30.3505 85.6223C32.0808 87.0555 33.8416 88.451 35.5719 89.8842C35.8854 90.1435 36.4983 90.3438 36.2838 90.8483C36.0905 91.3033 35.4988 91.1029 35.0839 91.1052C31.9087 91.1194 28.7335 91.1123 25.5582 91.1123V91.1217C22.5787 91.1217 19.5991 91.1194 16.6195 91.1217C15.2924 91.1217 13.977 91.2632 12.7395 91.7558C11.2615 92.3475 10.5661 93.5214 10.8772 94.8462C11.2214 96.3101 12.3788 96.4892 13.6117 96.4916C16.7374 96.4939 19.8631 96.4798 22.9888 96.4916C23.4438 96.4916 24.118 96.2653 24.2877 96.8122C24.4527 97.3449 23.7809 97.5665 23.4155 97.847C17.6119 102.319 11.8013 106.781 5.99301 111.246C4.94403 112.052 3.92334 112.889 3.23031 114.044C2.54199 115.192 2.44298 116.363 3.30338 117.464C4.21328 118.626 5.40841 118.963 6.8322 118.548C7.55587 118.339 8.15226 117.931 8.72507 117.469C11.8814 114.925 15.0355 112.377 18.2012 109.845C18.6043 109.522 18.9791 108.895 19.5355 109.108C20.113 109.327 19.9433 110.034 19.9857 110.55L19.988 110.548ZM39.1054 96.4515C45.4818 96.4444 51.0944 101.597 51.085 107.453C51.0756 113.287 45.4111 118.57 39.1478 118.586C32.9388 118.603 27.147 113.259 27.1235 107.495C27.0999 101.675 32.7597 96.4586 39.103 96.4515H39.1054ZM32.003 107.087C32.0336 103.431 35.4422 100.36 39.4708 100.36C43.4616 100.36 46.9433 103.493 46.9645 107.102C46.9857 110.734 43.3885 114.06 39.4566 114.046C35.4752 114.03 31.9723 110.762 32.003 107.087Z" fill="#D9D9D9"/>
<path d="M112.99 93.3946H109.978V105.443H112.99V93.3946Z" fill="#D9D9D9"/>
<path d="M128.032 93.3946H125.02V105.443H128.032V93.3946Z" fill="#D9D9D9"/>
<path d="M137.069 84.3593H134.038V87.3719H137.069V84.3593Z" fill="#D9D9D9"/>
<path d="M140.064 87.3717V120.505H137.07V123.499H134.038V126.53H103.955V123.499H100.942V120.505H97.9487V87.3717H100.942V114.48H103.955V117.493H134.038V114.48H137.07V87.3717H140.064Z" fill="#D9D9D9"/>
<path d="M134.039 81.3466H103.956V84.3592H134.039V81.3466Z" fill="#D9D9D9"/>
<path d="M103.955 84.3593H100.942V87.3719H103.955V84.3593Z" fill="#D9D9D9"/>
<path d="M192.069 105.214H197.186L194.641 97.4886L192.069 105.214Z" fill="#D9D9D9"/>
<path d="M212.672 100.827C210.797 100.827 209.471 102.098 209.237 104.089H215.96C215.807 102.07 214.564 100.827 212.672 100.827Z" fill="#D9D9D9"/>
<path d="M217.503 81.3466H187.684C183.124 81.3466 179.428 85.043 179.428 89.6027V118.263C179.428 122.823 183.124 126.52 187.684 126.52H217.503C222.063 126.52 225.759 122.823 225.759 118.263V89.6027C225.759 85.043 222.063 81.3466 217.503 81.3466ZM199.896 113.732L198.183 108.552H191.069L189.328 113.732H185.162L192.517 93.0043H196.921L204.288 113.732H199.898H199.896ZM219.925 106.938H209.204C209.303 109.321 210.681 110.802 212.811 110.802C214.439 110.802 215.547 110.238 216.019 109.175L216.08 109.035H219.829L219.76 109.326C219.067 112.279 216.43 114.043 212.71 114.043C208.096 114.043 205.232 110.913 205.232 105.874C205.232 100.836 208.086 97.5971 212.681 97.5971C217.276 97.5971 219.923 100.581 219.923 105.582V106.941L219.925 106.938Z" fill="#D9D9D9"/>
<path d="M273.303 81.3466C268.78 81.3466 265.124 85.0027 265.124 89.5262V118.202C265.124 122.726 268.78 126.382 273.303 126.382H303.134C307.658 126.382 311.314 122.726 311.314 118.202V89.5262C311.314 85.0027 307.658 81.3466 303.134 81.3466H273.303ZM295.07 91.2211H298.976C299.073 91.2022 299.148 91.2777 299.169 91.3555V109.716C299.169 110.063 299.188 110.447 299.207 110.871C299.245 111.274 299.264 111.661 299.285 111.989C299.285 112.123 299.228 112.238 299.092 112.297C298.09 112.722 297.031 113.028 295.954 113.221C294.992 113.393 293.991 113.49 292.991 113.49C291.567 113.509 290.143 113.221 288.854 112.625C287.642 112.066 286.641 111.142 285.948 110.008C285.236 108.835 284.889 107.371 284.889 105.619C284.87 104.195 285.236 102.791 285.948 101.558C286.678 100.306 287.737 99.2664 289.007 98.5734C290.356 97.8238 291.97 97.4561 293.877 97.4561C293.974 97.4561 294.108 97.4561 294.28 97.4749C294.453 97.4938 294.646 97.4938 294.877 97.5126V91.4309C294.877 91.2965 294.933 91.2187 295.07 91.2187V91.2211ZM277.883 92.8759H281.636C281.752 92.857 281.867 92.9325 281.886 93.0692C281.905 93.0881 281.905 93.1069 281.905 93.1258V112.873C281.905 113.085 281.808 113.181 281.636 113.181H277.865C277.692 113.181 277.615 113.085 277.615 112.873V93.1258C277.615 92.9537 277.711 92.8759 277.883 92.8759ZM293.724 101.037C292.975 101.037 292.223 101.19 291.548 101.536C290.893 101.864 290.337 102.345 289.912 102.96C289.488 103.575 289.278 104.403 289.278 105.405C289.26 106.079 289.375 106.753 289.606 107.387C289.799 107.906 290.087 108.368 290.471 108.754C290.837 109.101 291.28 109.37 291.779 109.525C292.298 109.697 292.838 109.775 293.378 109.775C293.665 109.775 293.936 109.756 294.186 109.737C294.436 109.756 294.667 109.719 294.879 109.641V101.173C294.707 101.136 294.533 101.096 294.361 101.077C294.148 101.058 293.936 101.039 293.727 101.039L293.724 101.037Z" fill="#D9D9D9"/>
<path d="M68.5607 182.767C68.3674 182.171 68.1953 181.593 68.002 180.997C67.8088 180.401 67.6367 179.842 67.4835 179.283C67.3302 178.743 67.1959 178.244 67.0591 177.782H67.0214C66.8494 178.609 66.6372 179.436 66.3661 180.264C66.0785 181.188 65.7886 182.15 65.4798 183.111C65.2111 184.092 64.9211 184.997 64.6335 185.806H69.5225C69.407 185.4 69.2538 184.919 69.0793 184.417C68.9072 183.899 68.7328 183.342 68.5607 182.765V182.767ZM86.3062 162.693H56.5458C51.9892 162.693 48.2954 166.387 48.2954 170.943V199.549C48.2954 204.065 51.9586 207.728 56.4751 207.728H86.2355C90.792 207.728 94.4859 204.034 94.4859 199.478V170.873C94.4859 166.356 90.8227 162.693 86.3062 162.693ZM76.5872 194.506H72.5634C72.4314 194.525 72.297 194.429 72.2569 194.294L70.6776 189.714H63.5185L62.0547 194.238C62.017 194.41 61.8614 194.525 61.6893 194.509H58.0709C57.8588 194.509 57.8022 194.391 57.8588 194.162L64.056 176.318C64.1126 176.125 64.1715 175.915 64.2493 175.684C64.3271 175.281 64.3648 174.856 64.3648 174.432C64.346 174.335 64.4214 174.239 64.518 174.22H69.5036C69.6569 174.22 69.7347 174.276 69.7535 174.373L76.7781 194.198C76.8347 194.407 76.7782 194.506 76.5849 194.506H76.5872ZM83.131 194.219C83.131 194.431 83.0555 194.528 82.8834 194.528H79.1095C78.9162 194.528 78.8219 194.41 78.8219 194.219V179.399C78.8219 179.205 78.8996 179.13 79.0741 179.13H82.8858C83.0579 179.13 83.1333 179.227 83.1333 179.399V194.219H83.131ZM82.7278 176.839C82.2823 177.301 81.6294 177.551 80.974 177.513C80.3399 177.532 79.7223 177.282 79.2603 176.839C78.8171 176.358 78.5861 175.721 78.605 175.069C78.5861 174.413 78.836 173.798 79.2957 173.355C79.7624 172.912 80.3777 172.681 81.0118 172.681C81.7638 172.681 82.3389 172.912 82.7632 173.355C83.1875 173.817 83.4185 174.432 83.3973 175.069C83.4162 175.724 83.1851 176.358 82.7255 176.839H82.7278Z" fill="#D9D9D9"/>
<path d="M152.81 178.322C152.098 178.034 151.327 177.918 150.54 177.937C150.04 177.937 149.597 177.937 149.232 177.956C148.847 177.937 148.576 177.956 148.442 177.975V184.441C148.711 184.46 148.961 184.479 149.192 184.479H150.212C150.962 184.479 151.714 184.363 152.426 184.132C153.041 183.96 153.581 183.592 154.005 183.111C154.408 182.631 154.602 181.975 154.602 181.129C154.62 180.533 154.467 179.936 154.158 179.415C153.831 178.916 153.369 178.529 152.81 178.319V178.322ZM171.793 162.693H142.101C137.544 162.693 133.851 166.387 133.851 170.943V199.478C133.851 204.034 137.544 207.728 142.101 207.728H171.864C176.383 207.728 180.043 204.065 180.043 199.549V170.943C180.043 166.387 176.35 162.693 171.793 162.693ZM157.638 185.115C156.869 186.192 155.792 187.001 154.54 187.463C153.232 187.944 151.787 188.118 150.21 188.118C149.748 188.118 149.439 188.118 149.248 188.099C149.057 188.081 148.786 188.081 148.421 188.081V194.257C148.44 194.391 148.343 194.509 148.209 194.528H144.475C144.321 194.528 144.244 194.45 144.244 194.275V174.472C144.244 174.338 144.3 174.26 144.437 174.26C144.765 174.26 145.071 174.26 145.514 174.241C145.976 174.222 146.457 174.222 146.978 174.203C147.499 174.185 148.055 174.185 148.652 174.166C149.248 174.147 149.826 174.147 150.403 174.147C151.983 174.147 153.291 174.34 154.368 174.743C155.33 175.071 156.216 175.608 156.947 176.323C157.562 176.938 158.043 177.69 158.352 178.517C158.639 179.326 158.793 180.153 158.793 181.018C158.793 182.673 158.411 184.04 157.638 185.117V185.115ZM171.286 192.604C170.746 193.375 169.994 193.969 169.132 194.32C168.189 194.723 167.034 194.933 165.645 194.933C164.761 194.933 163.894 194.858 163.029 194.686C162.355 194.568 161.68 194.358 161.065 194.07C160.931 193.995 160.832 193.861 160.851 193.707V190.358C160.851 190.301 160.872 190.223 160.928 190.186C160.985 190.148 161.044 190.167 161.1 190.204C161.85 190.648 162.64 190.956 163.486 191.147C164.214 191.341 164.985 191.435 165.756 191.435C166.487 191.435 167.008 191.336 167.354 191.164C167.663 191.029 167.873 190.702 167.873 190.355C167.873 190.084 167.72 189.837 167.411 189.584C167.102 189.337 166.47 189.047 165.527 188.677C164.547 188.33 163.644 187.868 162.795 187.293C162.199 186.869 161.699 186.313 161.331 185.657C161.025 185.042 160.872 184.368 160.891 183.691C160.891 182.864 161.122 182.074 161.546 181.362C162.027 180.592 162.736 179.976 163.566 179.592C164.469 179.132 165.605 178.92 166.97 178.92C167.76 178.92 168.568 178.977 169.356 179.092C169.933 179.17 170.492 179.323 171.01 179.536C171.086 179.554 171.164 179.632 171.204 179.708C171.223 179.785 171.241 179.861 171.241 179.939V183.076C171.241 183.154 171.204 183.229 171.145 183.269C170.973 183.307 170.876 183.307 170.798 183.269C170.221 182.961 169.605 182.751 168.95 182.614C168.238 182.461 167.526 182.364 166.796 182.364C166.411 182.345 166.006 182.402 165.638 182.499C165.391 182.555 165.176 182.692 165.042 182.883C164.945 183.036 164.889 183.229 164.889 183.401C164.889 183.573 164.966 183.748 165.082 183.901C165.254 184.113 165.485 184.285 165.737 184.42C166.178 184.651 166.642 184.863 167.102 185.054C168.144 185.4 169.143 185.881 170.067 186.459C170.702 186.862 171.222 187.402 171.586 188.057C171.894 188.67 172.048 189.346 172.029 190.037C172.05 190.945 171.781 191.847 171.279 192.599L171.286 192.604Z" fill="#D9D9D9"/>
<path d="M257.435 162.693H227.677C223.111 162.693 219.408 166.396 219.408 170.962V199.563C219.408 204.129 223.111 207.832 227.677 207.832H257.435C262.001 207.832 265.704 204.129 265.704 199.563V170.962C265.704 166.396 262.001 162.693 257.435 162.693ZM244.02 194.308C244.02 194.407 243.963 194.483 243.904 194.542C243.845 194.58 243.789 194.598 243.709 194.598H231.479C231.267 194.598 231.17 194.481 231.17 194.252V174.538C231.152 174.404 231.248 174.288 231.383 174.267H235.241C235.338 174.248 235.454 174.326 235.454 174.42V190.683H244.366C244.562 190.683 244.619 190.777 244.579 190.954L244.02 194.308ZM256.077 179.147V182.909C256.077 183.062 255.981 183.121 255.768 183.121C254.517 183.043 253.26 183.274 252.122 183.776C251.735 183.951 251.37 184.182 251.08 184.49V194.33C251.08 194.523 251.002 194.601 250.83 194.601H247.068C246.915 194.62 246.778 194.523 246.759 194.372V183.606C246.759 183.144 246.759 182.661 246.74 182.159C246.721 181.657 246.721 181.155 246.702 180.655C246.684 180.231 246.643 179.807 246.585 179.382C246.566 179.286 246.622 179.189 246.719 179.17C246.738 179.151 246.757 179.151 246.797 179.17H250.172C250.366 179.17 250.519 179.304 250.578 179.479C250.656 179.613 250.712 179.769 250.731 179.922C250.769 180.115 250.806 180.328 250.828 180.521C250.846 180.733 250.868 180.964 250.868 181.216C251.445 180.542 252.141 179.981 252.93 179.557C253.817 179.073 254.802 178.842 255.804 178.861C255.936 178.842 256.054 178.939 256.075 179.073C256.075 179.092 256.075 179.111 256.075 179.151L256.077 179.147Z" fill="#D9D9D9"/>
</g>
<defs>
<clipPath id="clip0_1205_1853">
<rect width="314" height="207.832" fill="white"/>
</clipPath>
</defs>
</svg>
