<?xml version="1.0" encoding="UTF-8"?>
<svg id="Layer_1" data-name="Layer 1" xmlns="http://www.w3.org/2000/svg" viewBox="0 0 500 126.26">
  <defs>
    <style>
      .cls-1 {
        fill: #606060;
      }

      .cls-1, .cls-2, .cls-3 {
        stroke-width: 0px;
      }

      .cls-2 {
        fill: #fff;
      }

      .cls-3 {
        fill: #60449a;
      }
    </style>
  </defs>
  <g>
    <path class="cls-2" d="m24.34,14.3v73.56s34.61,28.84,34.61,28.84l34.61-28.84V14.3H24.34Zm63.53,70.44l-29.05,24.02-28.8-24.02V19.99h57.84v64.75Z"/>
    <path class="cls-2" d="m58.95,117.19l-34.99-29.15V13.93h69.97v74.11l-34.98,29.15Zm-34.24-29.51l34.24,28.53,34.23-28.53V14.68H24.71v73.01Zm34.11,21.57l-29.17-24.34V19.62h58.59v65.3l-.14.11-29.29,24.22Zm-28.42-24.69l28.42,23.71,28.67-23.71V20.37H30.4v64.2Z"/>
    <polygon class="cls-2" points="81.94 25.84 81.94 54.68 76.17 54.68 76.17 33.47 58.87 48.91 41.56 33.47 41.56 54.68 35.79 54.68 35.79 25.84 41.56 25.84 58.87 41.57 76.17 25.85 76.19 25.84 81.94 25.84"/>
    <path class="cls-2" d="m82.32,55.06h-6.52v-20.75l-16.93,15.11-16.93-15.11v20.75h-6.52v-29.59h6.29l17.17,15.6,17.21-15.6h.1s6.13,0,6.13,0v29.59Zm-5.77-.75h5.02v-28.09h-5.26l-17.43,15.87-17.46-15.87h-5.25v28.09h5.02v-21.67l17.68,15.78,17.68-15.78v21.67Z"/>
    <path class="cls-2" d="m35.79,60.45v20.55s23.15,18.48,23.15,18.48l22.99-18.48v-20.55h-46.15Zm40.38,17.31l-17.18,13.73-17.43-13.73v-11.54h34.61v11.54Z"/>
    <path class="cls-2" d="m58.95,99.96l-23.53-18.78v-21.11h46.9v21.11l-23.37,18.78Zm-22.78-19.14l22.78,18.18,22.62-18.18v-20h-45.4v20Zm22.82,11.14l-17.8-14.03v-12.09h35.36v12.09l-17.56,14.03Zm-17.05-14.39l17.05,13.43,16.81-13.43v-10.98h-33.86v10.98Z"/>
  </g>
  <g>
    <g>
      <rect class="cls-3" x="331.83" y="42.97" width="8.81" height="8.94"/>
      <rect class="cls-2" x="331.83" y="56.03" width="8.81" height="30.24"/>
      <path class="cls-2" d="m310.67,62.03h0c0,1.22.99,2.2,2.2,2.2h4.4c6.08,0,11.01,4.93,11.01,11.01h0c0,6.08-4.93,11.01-11.01,11.01l-14.15-.06,1.84-8.75h12.31c1.22,0,2.2-.99,2.2-2.2h0c0-1.22-.99-2.2-2.2-2.2h-4.4c-6.08,0-11.01-4.93-11.01-11.01h0c0-6.08,4.93-11.49,11.01-11.49l13.8.13-1.1,9.16h-12.71c-1.22,0-2.2.99-2.2,2.2Z"/>
      <path class="cls-2" d="m217.17,41.73v44.53h22.02c12.16,0,22.02-9.86,22.02-22.02h0c0-12.16-9.86-22.5-22.02-22.5h-22.02Zm22.02,35.72h-13.21v-26.91h13.21c7.3,0,13.21,6.4,13.21,13.69h0c0,7.3-5.92,13.21-13.21,13.21Z"/>
      <path class="cls-2" d="m412.98,61.86v24.41h-9.46v-20.56c0-3.15-1.55-5.88-4.73-5.87-3.45.01-4.73,2.72-4.73,5.87v20.56h-9.33v-35.73h9.33c0,1.41-.28,2.79-.83,4.08l-.97,2.3c1.61-3.72,4.56-7.01,9.61-7.01,6.69,0,11.11,5.6,11.11,11.95Z"/>
      <path class="cls-2" d="m371.11,50.54c0,.14,0,.29,0,.43.02.29.06.61.11.95.11.69.27,1.45.52,2.2h0c.06.18.12.34.19.5l.58,1.38c-1.24-2.19-2.52-4.39-5.18-5.62-.02,0-.03-.01-.05-.01-1.59-.42-3.27-.65-4.99-.65-5.24,0-9.98,2.09-13.41,5.47-3.43,3.39-5.55,8.05-5.55,13.21,0,10.32,8.49,18.69,18.96,18.69,3.32,0,6.43-.84,9.14-2.31v3.07c0,2.49-1.01,4.73-2.64,6.36-1.62,1.63-3.88,2.64-6.36,2.64-4.97,0-9-4.03-9-9l-7.88.56c0,4.81,1.95,9.17,5.11,12.33s7.52,5.11,12.34,5.11c9.63,0,17.44-7.81,17.44-17.44v-37.87h-9.34Zm-2.11,24.47c-1.71,1.69-4.08,2.74-6.7,2.74-5.24,0-9.48-4.19-9.48-9.35,0-2.58,1.06-4.91,2.78-6.6,1.71-1.69,4.08-2.74,6.7-2.74s4.99,1.05,6.7,2.74c1.72,1.69,2.78,4.02,2.78,6.6s-1.06,4.92-2.78,6.61Z"/>
      <path class="cls-2" d="m371.75,54.12c-.27-.71-.45-1.45-.55-2.21-.04-.31-.07-.63-.08-.94.02.29.06.61.11.95.11.69.27,1.45.52,2.2Z"/>
      <path class="cls-2" d="m451.77,68.54c0-5.06-2.05-9.77-5.37-13.21-3.32-3.44-7.9-5.61-12.96-5.61s-9.65,2.17-12.97,5.61c-3.32,3.44-5.37,8.15-5.37,13.21,0,1.23.12,2.45.36,3.62.02.1.04.21.06.31.04.21.1.41.15.62.52,1.84,1.31,3.59,2.32,5.18,3.32,5.25,9.06,8.82,15.6,8.82,7.56,0,14.03-4.77,16.96-11.37h-9.75c-1.64,1.89-3.69,2.6-7.18,2.6s-6.34-1.97-7.68-4.41c-.05-.08-.09-.17-.13-.26-.22-.43-.38-.87-.49-1.32h26.44v-3.73l-.06-.05h.06Zm-18.33-9.84c2.54,0,4.82,1.13,6.47,2.98.98,1.08,1.74,2.4,2.18,3.88h-17.32c1.21-3.99,4.63-6.86,8.66-6.86Z"/>
      <path class="cls-2" d="m300.26,68.54c0-5.06-2.05-9.77-5.37-13.21-3.32-3.44-7.9-5.61-12.96-5.61s-9.65,2.17-12.97,5.61c-3.32,3.44-5.37,8.15-5.37,13.21,0,1.23.12,2.45.36,3.62.02.1.04.21.06.31.04.21.1.41.15.62.52,1.84,1.31,3.59,2.32,5.18,3.32,5.25,9.06,8.82,15.6,8.82,7.56,0,14.03-4.77,16.96-11.37h-9.75c-1.64,1.89-3.69,2.6-7.18,2.6s-6.34-1.97-7.68-4.41c-.05-.08-.09-.17-.13-.26-.22-.43-.38-.87-.49-1.32h26.44v-3.73l-.06-.05h.06Zm-18.33-9.16c2.54,0,4.82,1.02,6.47,2.69.98.97,1.74,2.16,2.18,3.5h-17.32c1.21-3.6,4.63-6.18,8.66-6.18Z"/>
      <path class="cls-2" d="m371.94,54.62c-.07-.16-.13-.32-.19-.49.2.65.46,1.29.77,1.87l-.58-1.38Zm-.71-2.7s-.02-.01-.03-.01c.1.76.28,1.5.55,2.21-.25-.75-.41-1.51-.52-2.2Z"/>
      <path class="cls-2" d="m471.74,49.72c-4.31.04-7.08,2.48-8.8,5.53l.27-.64c.55-1.29.83-2.67.83-4.07h0s-9.34,0-9.34,0v35.73h9.34v-16.07c0-6.1,4-10.51,9.03-10.51h2.97v-9.98s-4.3,0-4.3,0Z"/>
      <path class="cls-1" d="m371.75,54.12c-.27-.71-.45-1.45-.55-2.21-.04-.31-.07-.63-.08-.94.02.29.06.61.11.95.11.69.27,1.45.52,2.2Z"/>
    </g>
    <g>
      <path class="cls-2" d="m164.71,41.73v44.05h22.02c12.16,0,22.02-9.86,22.02-22.02h0c0-12.16-9.86-22.02-22.02-22.02h-22.02Zm22.02,35.24h-13.21v-26.43h13.21c7.3,0,13.21,5.92,13.21,13.21h0c0,7.3-5.92,13.21-13.21,13.21Z"/>
      <polygon class="cls-2" points="152.66 41.73 139.45 54.51 126.24 41.73 117.42 41.73 117.42 85.78 126.24 85.78 126.24 56.36 124.92 53.92 124.92 53.9 139.45 67.94 139.45 67.94 139.45 67.94 153.97 53.9 153.98 53.92 152.66 56.36 152.66 85.78 161.47 85.78 161.47 41.73 152.66 41.73"/>
    </g>
  </g>
</svg>