<svg width="390" height="554" viewBox="0 0 390 554" fill="none" xmlns="http://www.w3.org/2000/svg">
<path d="M195 554C179.938 554 164.824 548.785 152.805 538.404L22.3148 425.741C8.16527 413.487 0 395.765 0 377.081V64.3574C0 28.8621 28.9075 0 64.5096 0H325.49C361.042 0 390 28.8621 390 64.3574V377.081C390 395.765 381.885 413.538 367.685 425.741L237.195 538.404C225.176 548.785 210.063 554 195 554ZM64.5096 38.4828C50.2079 38.4828 38.5942 50.0782 38.5942 64.3574V377.081C38.5942 384.575 41.8401 391.714 47.5709 396.626L178.061 509.289C187.697 517.644 202.303 517.644 211.939 509.289L342.429 396.626C348.109 391.714 351.406 384.575 351.406 377.081V64.3574C351.406 50.0782 339.792 38.4828 325.49 38.4828H64.5096Z" fill="white"/>
<path d="M316.704 225.914H278.11V123.378L194.43 199.685L110.749 123.378V225.914H72.1553V75.7805H115.77L194.43 147.48L273.089 75.7805H316.704V225.914Z" fill="white"/>
<path d="M194.227 470.584L72.1055 369.161V257.663H316.654V369.161L194.177 470.584H194.227ZM110.7 351.135L194.227 420.556L278.06 351.135V296.247H110.649V351.186L110.7 351.135Z" fill="white"/>
</svg>
