<svg width="468" height="109" viewBox="0 0 468 109" fill="none" xmlns="http://www.w3.org/2000/svg">
<path d="M39.0378 109C36.0789 109 33.11 107.974 30.7489 105.932L5.11535 83.7649C2.3358 81.354 0.731812 77.8671 0.731812 74.1909V12.6624C0.731812 5.67864 6.41042 0 13.4041 0H64.6714C71.6551 0 77.3437 5.67864 77.3437 12.6624V74.1909C77.3437 77.8671 75.7496 81.3639 72.9601 83.7649L47.3266 105.932C44.9655 107.974 41.9967 109 39.0378 109ZM13.4041 7.57152C10.5947 7.57152 8.31328 9.85294 8.31328 12.6624V74.1909C8.31328 75.6654 8.9509 77.0701 10.0767 78.0365L35.7102 100.203C37.6031 101.847 40.4724 101.847 42.3652 100.203L67.9988 78.0365C69.1146 77.0701 69.7622 75.6654 69.7622 74.1909V12.6624C69.7622 9.85294 67.4808 7.57152 64.6714 7.57152H13.4041Z" fill="white"/>
<path d="M62.9453 44.4488H55.3638V24.2747L38.9257 39.2882L22.4875 24.2747V44.4488H14.906V14.9099H23.4738L38.9257 29.0169L54.3776 14.9099H62.9453V44.4488Z" fill="white"/>
<path d="M38.8859 92.5879L14.8962 72.6329V50.6954H62.9355V72.6329L38.876 92.5879H38.8859ZM22.4777 69.0863L38.8859 82.7449L55.354 69.0863V58.2869H22.4677V69.0962L22.4777 69.0863Z" fill="white"/>
<path d="M443.014 50.82C443.014 45.76 440.964 41.05 437.644 37.61C434.324 34.17 429.744 32 424.684 32C419.624 32 415.034 34.17 411.714 37.61C408.394 41.05 406.344 45.76 406.344 50.82C406.344 52.05 406.464 53.27 406.704 54.44C406.724 54.54 406.744 54.65 406.764 54.75C406.804 54.96 406.864 55.16 406.914 55.37C407.434 57.21 408.224 58.96 409.234 60.55C412.554 65.8 418.294 69.37 424.834 69.37C432.394 69.37 438.864 64.6 441.794 58H432.044C430.404 59.89 428.354 60.6 424.864 60.6C421.374 60.6 418.524 58.63 417.184 56.19C417.134 56.11 417.094 56.02 417.054 55.93C416.834 55.5 416.674 55.06 416.564 54.61H443.004V50.88L442.944 50.83H443.004L443.014 50.82ZM424.684 40.98C427.224 40.98 429.504 42.11 431.154 43.96C432.134 45.04 432.894 46.36 433.334 47.84H416.014C417.224 43.85 420.644 40.98 424.674 40.98H424.684Z" fill="white"/>
<path d="M462.974 32.01C458.664 32.05 455.894 34.49 454.174 37.54L454.444 36.9C454.994 35.61 455.274 34.23 455.274 32.83H445.934V68.56H455.274V52.49C455.274 46.39 459.274 41.98 464.304 41.98H467.274V32H462.974V32.01Z" fill="white"/>
<path d="M330.094 26.24H321.284V35.18H330.094V26.24Z" fill="#6037AF"/>
<path d="M330.094 39.29H321.284V69.53H330.094V39.29Z" fill="white"/>
<path d="M300.114 45.3C300.114 46.52 301.104 47.5 302.314 47.5H306.714C312.794 47.5 317.724 52.43 317.724 58.51C317.724 64.59 312.794 69.52 306.714 69.52L292.564 69.46L294.404 60.71H306.714C307.934 60.71 308.914 59.72 308.914 58.51C308.914 57.29 307.924 56.31 306.714 56.31H302.314C296.234 56.31 291.304 51.38 291.304 45.3C291.304 39.22 296.234 33.81 302.314 33.81L316.114 33.94L315.014 43.1H302.304C301.084 43.1 300.104 44.09 300.104 45.3H300.114Z" fill="white"/>
<path d="M402.424 45.13V69.54H392.964V48.98C392.964 45.83 391.414 43.1 388.234 43.11C384.784 43.12 383.504 45.83 383.504 48.98V69.54H374.174V33.81H383.504C383.504 35.22 383.224 36.6 382.674 37.89L381.704 40.19C383.314 36.47 386.264 33.18 391.314 33.18C398.004 33.18 402.424 38.78 402.424 45.13Z" fill="white"/>
<path d="M360.554 33.81C360.554 33.95 360.554 34.1 360.554 34.24C360.574 34.53 360.614 34.85 360.664 35.19C360.774 35.88 360.934 36.64 361.184 37.39C361.244 37.57 361.304 37.73 361.374 37.89L361.954 39.27C360.714 37.08 359.434 34.88 356.774 33.65C356.754 33.65 356.744 33.64 356.724 33.64C355.134 33.22 353.454 32.99 351.734 32.99C346.494 32.99 341.754 35.08 338.324 38.46C334.894 41.85 332.774 46.51 332.774 51.67C332.774 61.99 341.264 70.36 351.734 70.36C355.054 70.36 358.164 69.52 360.874 68.05V71.12C360.874 73.61 359.864 75.85 358.234 77.48C356.614 79.11 354.354 80.12 351.874 80.12C346.904 80.12 342.874 76.09 342.874 71.12L334.994 71.68C334.994 76.49 336.944 80.85 340.104 84.01C343.264 87.17 347.624 89.12 352.444 89.12C362.074 89.12 369.884 81.31 369.884 71.68V33.81H360.544H360.554ZM358.444 58.28C356.734 59.97 354.364 61.02 351.744 61.02C346.504 61.02 342.264 56.83 342.264 51.67C342.264 49.09 343.324 46.76 345.044 45.07C346.754 43.38 349.124 42.33 351.744 42.33C354.364 42.33 356.734 43.38 358.444 45.07C360.164 46.76 361.224 49.09 361.224 51.67C361.224 54.25 360.164 56.59 358.444 58.28Z" fill="white"/>
<path d="M361.194 37.39C360.924 36.68 360.744 35.94 360.644 35.18C360.604 34.87 360.574 34.55 360.564 34.24C360.584 34.53 360.624 34.85 360.674 35.19C360.784 35.88 360.944 36.64 361.194 37.39Z" fill="white"/>
<path d="M289.704 51.8C289.704 46.74 287.654 42.03 284.334 38.59C281.014 35.15 276.434 32.98 271.374 32.98C266.314 32.98 261.724 35.15 258.404 38.59C255.084 42.03 253.034 46.74 253.034 51.8C253.034 53.03 253.154 54.25 253.394 55.42C253.414 55.52 253.434 55.63 253.454 55.73C253.494 55.94 253.554 56.14 253.604 56.35C254.124 58.19 254.914 59.94 255.924 61.53C259.244 66.78 264.984 70.35 271.524 70.35C279.084 70.35 285.554 65.58 288.484 58.98H278.734C277.094 60.87 275.044 61.58 271.554 61.58C268.064 61.58 265.214 59.61 263.874 57.17C263.824 57.09 263.784 57 263.744 56.91C263.524 56.48 263.364 56.04 263.254 55.59H289.694V51.86L289.634 51.81H289.694L289.704 51.8ZM271.374 42.64C273.914 42.64 276.194 43.66 277.844 45.33C278.824 46.3 279.584 47.49 280.024 48.83H262.704C263.914 45.23 267.334 42.65 271.364 42.65L271.374 42.64Z" fill="white"/>
<path d="M361.384 37.89C361.314 37.73 361.254 37.57 361.194 37.4C361.394 38.05 361.654 38.69 361.964 39.27L361.384 37.89ZM360.674 35.19C360.674 35.19 360.654 35.18 360.644 35.18C360.744 35.94 360.924 36.68 361.194 37.39C360.944 36.64 360.784 35.88 360.674 35.19Z" fill="white"/>
<path d="M205.344 69H227.862C239.878 69 249.62 59.2574 249.62 47.2421C249.62 35.2269 239.878 25.01 227.862 25.01H205.344V69ZM227.862 60.2949H214.81V33.7052H227.862C235.075 33.7052 240.915 40.0291 240.915 47.2323C240.915 54.4454 235.066 60.285 227.862 60.285V60.2949Z" fill="white"/>
<path d="M153.611 69H176.129C188.144 69 197.887 59.2574 197.887 47.2421C197.887 35.2269 188.144 25.01 176.129 25.01H153.611V69ZM176.129 60.2949H163.076V33.7052H176.129C183.342 33.7052 189.182 40.0291 189.182 47.2323C189.182 54.4454 183.332 60.285 176.129 60.285V60.2949Z" fill="white"/>
<path d="M138.574 25L125.364 37.77L112.154 25H103.344V69.05H112.154V39.63L110.834 37.19L110.844 37.16L125.364 51.21L139.894 37.16V37.19L138.574 39.63V69.05H147.394V25H138.574Z" fill="white"/>
</svg>
