<svg width="492" height="108" viewBox="0 0 492 108" fill="none" xmlns="http://www.w3.org/2000/svg">
<path d="M9.58487 58.2321V97.3621H28.9386C39.6295 97.3621 48.2924 88.7001 48.2924 78.0103C48.2924 67.3206 39.6295 58.2321 28.9386 58.2321H9.58487ZM28.9386 89.6187H17.3224V65.9754H28.9386C35.3505 65.9754 40.5548 71.5991 40.5548 78.0103C40.5548 84.4216 35.3571 89.6253 28.9386 89.6253V89.6187Z" fill="white"/>
<path d="M59.3238 8.0816V47.2116H78.6776C89.3684 47.2116 98.0313 38.5496 98.0313 27.8599C98.0313 17.1702 89.3684 8.0816 78.6776 8.0816H59.3238ZM78.6776 39.4683H67.0614V15.8249H78.6776C85.0894 15.8249 90.2937 21.4487 90.2937 27.8599C90.2937 34.2711 85.096 39.4749 78.6776 39.4749V39.4683Z" fill="white"/>
<path d="M40.5527 8.38062L28.943 19.6084L17.3334 8.38062H9.58926V47.0907H17.3334V21.2424L16.1783 19.09V19.0703L28.943 31.4137L41.7077 19.0703L41.7143 19.09L40.5527 21.2424V47.0907H48.3034V8.38062H40.5527Z" fill="white"/>
<path d="M66.8705 89.6326H59.0064V96.9796H95.7411V89.6326H75.0412H66.8705Z" fill="white"/>
<path d="M76.8759 81.551H95.7411V74.2041H76.8759H67.7666H59.0064V81.551H67.7666H76.8759Z" fill="white"/>
<path d="M59.0064 58.7755V66.1225H95.7411V58.7755H59.0064Z" fill="white"/>
<path d="M355.482 29.24H346.672V38.18H355.482V29.24Z" fill="#6037AF"/>
<path d="M355.482 42.29H346.672V72.53H355.482V42.29Z" fill="white"/>
<path d="M325.502 48.3C325.502 49.52 326.492 50.5 327.702 50.5H332.102C338.182 50.5 343.112 55.43 343.112 61.51C343.112 67.59 338.182 72.52 332.102 72.52L317.952 72.46L319.792 63.71H332.102C333.322 63.71 334.302 62.72 334.302 61.51C334.302 60.29 333.312 59.31 332.102 59.31H327.702C321.622 59.31 316.692 54.38 316.692 48.3C316.692 42.22 321.622 36.81 327.702 36.81L341.502 36.94L340.402 46.1H327.692C326.472 46.1 325.492 47.09 325.492 48.3H325.502Z" fill="white"/>
<path d="M440.252 48.3C440.252 49.52 441.242 50.5 442.452 50.5H446.852C452.932 50.5 457.862 55.43 457.862 61.51C457.862 67.59 452.932 72.52 446.852 72.52L432.702 72.46L434.542 63.71H446.852C448.072 63.71 449.052 62.72 449.052 61.51C449.052 60.29 448.062 59.31 446.852 59.31H442.452C436.372 59.31 431.442 54.38 431.442 48.3C431.442 42.22 436.372 36.81 442.452 36.81L456.252 36.94L455.152 46.1H442.442C441.222 46.1 440.242 47.09 440.242 48.3H440.252Z" fill="white"/>
<path d="M427.812 48.13V72.54H418.352V51.98C418.352 48.83 416.802 46.1 413.622 46.11C410.172 46.12 408.892 48.83 408.892 51.98V72.54H399.562V36.81H408.892C408.892 38.22 408.612 39.6 408.062 40.89L407.092 43.19C408.702 39.47 411.652 36.18 416.702 36.18C423.392 36.18 427.812 41.78 427.812 48.13Z" fill="white"/>
<path d="M385.942 36.81C385.942 36.95 385.942 37.1 385.942 37.24C385.962 37.53 386.002 37.85 386.052 38.19C386.162 38.88 386.322 39.64 386.572 40.39C386.632 40.57 386.692 40.73 386.762 40.89L387.342 42.27C386.102 40.08 384.822 37.88 382.162 36.65C382.142 36.65 382.132 36.64 382.112 36.64C380.522 36.22 378.842 35.99 377.122 35.99C371.882 35.99 367.142 38.08 363.712 41.46C360.282 44.85 358.162 49.51 358.162 54.67C358.162 64.99 366.652 73.36 377.122 73.36C380.442 73.36 383.552 72.52 386.262 71.05V74.12C386.262 76.61 385.252 78.85 383.622 80.48C382.002 82.11 379.742 83.12 377.262 83.12C372.292 83.12 368.262 79.09 368.262 74.12L360.382 74.68C360.382 79.49 362.332 83.85 365.492 87.01C368.652 90.17 373.012 92.12 377.832 92.12C387.462 92.12 395.272 84.31 395.272 74.68V36.81H385.932H385.942ZM383.832 61.28C382.122 62.97 379.752 64.02 377.132 64.02C371.892 64.02 367.652 59.83 367.652 54.67C367.652 52.09 368.712 49.76 370.432 48.07C372.142 46.38 374.512 45.33 377.132 45.33C379.752 45.33 382.122 46.38 383.832 48.07C385.552 49.76 386.612 52.09 386.612 54.67C386.612 57.25 385.552 59.59 383.832 61.28Z" fill="white"/>
<path d="M386.582 40.39C386.312 39.68 386.132 38.94 386.032 38.18C385.992 37.87 385.962 37.55 385.952 37.24C385.972 37.53 386.012 37.85 386.062 38.19C386.172 38.88 386.332 39.64 386.582 40.39Z" fill="white"/>
<path d="M315.092 54.8C315.092 49.74 313.042 45.03 309.722 41.59C306.402 38.15 301.822 35.98 296.762 35.98C291.702 35.98 287.112 38.15 283.792 41.59C280.472 45.03 278.422 49.74 278.422 54.8C278.422 56.03 278.542 57.25 278.782 58.42C278.802 58.52 278.822 58.63 278.842 58.73C278.882 58.94 278.942 59.14 278.992 59.35C279.512 61.19 280.302 62.94 281.312 64.53C284.632 69.78 290.372 73.35 296.912 73.35C304.472 73.35 310.942 68.58 313.872 61.98H304.122C302.482 63.87 300.432 64.58 296.942 64.58C293.452 64.58 290.602 62.61 289.262 60.17C289.212 60.09 289.172 60 289.132 59.91C288.912 59.48 288.752 59.04 288.642 58.59H315.082V54.86L315.022 54.81H315.082L315.092 54.8ZM296.762 45.64C299.302 45.64 301.582 46.66 303.232 48.33C304.212 49.3 304.972 50.49 305.412 51.83H288.092C289.302 48.23 292.722 45.65 296.752 45.65L296.762 45.64Z" fill="white"/>
<path d="M386.772 40.89C386.702 40.73 386.642 40.57 386.582 40.4C386.782 41.05 387.042 41.69 387.352 42.27L386.772 40.89ZM386.062 38.19C386.062 38.19 386.042 38.18 386.032 38.18C386.132 38.94 386.312 39.68 386.582 40.39C386.332 39.64 386.172 38.88 386.062 38.19Z" fill="white"/>
<path d="M230.732 72H253.251C265.266 72 275.008 62.2574 275.008 50.2421C275.008 38.2269 265.266 28.01 253.251 28.01H230.732V72ZM253.251 63.2949H240.198V36.7052H253.251C260.464 36.7052 266.303 43.0291 266.303 50.2323C266.303 57.4454 260.454 63.285 253.251 63.285V63.2949Z" fill="white"/>
<path d="M178.999 72H201.517C213.533 72 223.275 62.2574 223.275 50.2421C223.275 38.2269 213.533 28.01 201.517 28.01H178.999V72ZM201.517 63.2949H188.465V36.7052H201.517C208.73 36.7052 214.57 43.0291 214.57 50.2323C214.57 57.4454 208.721 63.285 201.517 63.285V63.2949Z" fill="white"/>
<path d="M163.962 28L150.752 40.77L137.542 28H128.732V72.05H137.542V42.63L136.222 40.19L136.232 40.16L150.752 54.21L165.282 40.16V40.19L163.962 42.63V72.05H172.782V28H163.962Z" fill="white"/>
</svg>
