<?xml version="1.0" encoding="utf-8"?>
<!-- Generator: Adobe Illustrator 27.8.0, SVG Export Plug-In . SVG Version: 6.00 Build 0)  -->
<svg version="1.1" id="Layer_1" xmlns="http://www.w3.org/2000/svg" xmlns:xlink="http://www.w3.org/1999/xlink" x="0px" y="0px"
	 viewBox="0 0 1000 1000" style="enable-background:new 0 0 1000 1000;" xml:space="preserve">
<style type="text/css">
	.st0{opacity:0.65;fill:#FFFFFF;}
</style>
<path class="st0" d="M491,108.8c-211.4,0-382.7,171.4-382.7,382.7S279.6,874.2,491,874.2s382.7-171.4,382.7-382.7
	S702.4,108.8,491,108.8z M650.8,260.1c21.9,0,39.9,17.9,39.9,39.8c-0.2,22-18.3,39.7-40.3,39.4c-21-0.2-38.2-16.7-39.4-37.7
	l-82.8-17.4l-25.5,119.5c58.2,2.2,111,20.2,149.1,47.5c9.8-9.9,23.3-15.7,38.5-15.7c30.9,0,55.9,25.1,55.9,55.9
	c0,22.8-13.9,42.5-32.2,51.5c0.9,5.5,1.4,11,1.3,16.6c0,85.9-99.8,155.3-223.4,155.3s-223.4-69.4-223.4-155.3c0-5.8,0.5-11.7,1.4-17
	c-20.2-9-33.2-29-33.1-51c0-30.9,25.1-55.9,55.9-55.9c14.8,0,28.6,6.3,38.5,15.6c38.5-28.2,91.8-45.6,151.3-47.4l28.2-133.4
	c0.7-2.6,2.3-4.8,4.5-6.3c2.3-1.3,5-1.8,7.6-1.3l92.7,19.7C621.9,268.7,635.7,260,650.8,260.1z M403.3,491.5
	c-22,0-39.9,17.9-39.9,39.9c0,21.9,17.9,39.8,39.9,39.8c21.9,0,39.8-17.9,39.8-39.8C443.1,509.4,425.2,491.5,403.3,491.5
	L403.3,491.5z M578.7,491.5c-21.9,0-39.8,17.9-39.8,39.9c0,21.9,17.9,39.8,39.8,39.8c21.9,0,39.8-17.9,39.8-39.8
	C618.6,509.4,600.7,491.5,578.7,491.5z M404.4,618.8c-2.8,0-5.4,1.1-7.4,3c-4,4.1-4,10.7,0,14.8c26.9,26.9,79.2,29.1,94.4,29.1
	c15.2,0,67.1-1.8,94.4-29.1c3.8-4,4.2-10.3,0.9-14.8c-4.1-4.1-10.7-4.1-14.8,0c-17.4,17-53.7,23.3-80.1,23.3
	c-26.4,0-63.1-6.3-80.1-23.3C409.8,619.8,407.1,618.7,404.4,618.8L404.4,618.8z"/>
</svg>
