<svg width="590" height="425" viewBox="0 0 590 425" fill="none" xmlns="http://www.w3.org/2000/svg">
<g clip-path="url(#clip0_568_4094)">
<path d="M15.8362 307.534C15.8362 307.534 26.4847 308.351 25.9386 314.891C25.9386 314.891 30.5803 311.894 31.6725 307.806C32.7646 303.719 38.2254 307.806 38.2254 307.806C38.2254 307.806 40.4097 303.719 40.6827 302.901C40.9558 302.084 63.0719 313.529 64.1641 313.801C65.2562 314.074 73.1744 297.451 73.1744 297.451C73.1744 297.451 104.028 306.716 105.393 306.444C106.758 306.171 106.212 301.539 106.212 301.539L121.775 302.356L120.137 295.816L133.789 305.626L149.625 304.536L157.543 309.714L172.834 303.174L174.472 305.354L178.84 300.449L186.485 299.631L188.67 288.186L176.11 290.093L174.472 283.553C174.472 283.553 165.734 283.281 166.281 282.463C166.827 281.646 177.748 281.646 177.748 281.646L181.025 275.378C181.025 275.378 176.383 274.015 176.11 273.743C175.837 273.47 184.028 273.743 184.028 273.743L187.851 271.29L184.847 267.203L190.308 268.565C190.308 268.565 206.417 253.305 202.322 242.95C198.226 232.594 183.209 227.144 176.383 227.689C169.557 228.234 170.832 233.958 170.832 233.958C170.832 233.958 166.281 233.413 164.825 229.598C164.825 229.598 165.917 226.147 170.832 224.33C175.746 222.513 170.284 211.067 167.919 206.707C165.553 202.347 168.102 203.8 170.468 202.71C172.834 201.62 167.736 194.171 165.188 189.63C162.64 185.089 166.417 184.633 168.465 182.726C170.513 180.818 164.642 177.003 161.775 174.687C158.909 172.37 157.816 162.015 148.123 161.606C138.431 161.197 142.663 130.268 144.028 125.499C145.393 120.73 138.977 124.954 135.7 112.056C132.424 99.1575 126.599 103.881 123.504 103.518C120.409 103.155 111.49 106.97 110.035 103.336C108.579 99.7014 115.495 100.428 118.043 100.793C120.591 101.157 119.682 99.7025 120.956 97.7045C122.231 95.7064 130.057 104.245 129.693 97.3415C129.33 90.4383 125.142 90.8013 125.142 90.8013L127.144 88.4392C127.144 88.4392 147.713 69.9087 147.895 62.0965C148.078 54.2843 154.266 57.5544 154.266 52.1042C154.266 46.6541 133.879 43.202 130.602 43.747C127.326 44.292 123.139 39.2048 120.773 40.8399C118.406 42.4749 114.22 45.2 112.764 44.292C111.308 43.384 103.663 45.745 103.844 43.202C104.026 40.6589 107.484 37.5709 109.123 39.0239C110.761 40.4769 112.581 39.5689 112.581 39.5689C112.581 39.5689 115.858 36.6618 116.222 35.7538C116.585 34.8458 113.674 34.6638 112.217 34.6638C110.76 34.6638 110.396 33.7558 110.942 33.2108C111.488 32.6658 132.239 18.6774 132.785 17.7684C133.331 16.8593 136.789 12.3182 136.972 9.59314C137.154 6.86807 111.306 5.77805 110.942 7.23105C110.578 8.68406 108.212 11.0462 108.212 11.0462C108.212 11.0462 107.848 7.9581 107.12 5.95899C106.391 3.95988 100.021 -2.94327 98.9285 1.41685C97.8363 5.77696 97.1078 8.50203 96.0157 8.50203C94.9235 8.50203 88.3706 11.0451 97.8363 15.0422C97.8363 15.0422 96.5618 19.0393 93.104 16.1322C89.6462 13.2251 89.0991 12.4992 89.8275 16.4952L90.0099 20.6733L86.005 17.9482C86.005 17.9482 83.4111 20.5828 86.4146 23.0354C86.4146 23.0354 89.691 25.0792 87.9163 26.3055C86.1415 27.5317 85.4589 26.578 83.2746 24.2616C81.0903 21.9453 80.4077 26.3055 81.6364 28.8943C82.865 31.4831 80.4077 30.3931 79.4521 28.8943C78.4964 27.3955 76.9947 24.2616 75.9026 26.3055C74.8104 28.3493 77.2678 35.2982 79.4521 38.0233C81.6364 40.7483 80.4077 49.4685 80.1347 49.8773C79.8616 50.2861 73.3087 48.651 73.9913 50.8311C74.6739 53.0111 81.2268 54.5099 79.0425 56.4175C76.8582 58.325 74.1278 58.7338 72.08 56.5537C70.0322 54.3737 64.2984 58.1888 67.7114 62.1401C71.1244 66.0915 68.9401 66.2277 66.2097 65.0014C63.4793 63.7752 59.5202 62.5489 59.7933 65.2739C60.0663 67.999 60.2028 68.4078 60.2028 68.4078C60.2028 68.4078 55.5612 67.8628 56.5168 70.0428C57.4724 72.2229 61.4315 70.8603 62.2506 72.6316C63.0697 74.4029 60.7489 77.9455 58.2916 78.0818C55.8342 78.218 50.783 77.4005 53.6499 80.5343C56.5168 83.6682 66.0732 81.7606 68.394 78.3543C70.7148 74.948 71.5339 73.8579 72.2165 73.3129C72.8991 72.7679 75.6295 70.7241 75.6295 70.7241L79.7273 68.4089L80.2734 70.5889L74.2665 74.6765L72.3552 78.7641L68.3962 82.5792C68.6692 85.3043 67.8501 91.2995 67.8501 91.2995L61.9798 94.842C61.9798 94.842 65.6658 95.2508 66.8945 94.4333C68.1231 93.6158 62.9354 98.7934 62.9354 98.7934L65.3927 101.246C65.3927 101.246 60.7511 103.699 60.205 108.059C59.6589 112.419 56.3825 115.961 55.5634 116.506C54.7442 117.051 54.1982 119.776 56.6555 119.913C59.1129 120.049 62.1163 118.278 62.1163 118.278L63.7545 113.509L64.7102 110.647L66.2119 105.606L69.7614 103.29L70.1709 98.9297L69.0788 95.3871L80.956 88.3019C80.956 88.3019 80.5464 94.5695 81.7751 97.4309C83.0038 100.292 87.7819 101.11 87.7819 101.11L80.4099 100.156C80.4099 100.156 77.816 107.65 77.816 108.331C77.816 109.012 81.6386 116.234 81.6386 116.234L75.6317 122.365L69.8979 130.54L69.3518 135.309C69.3518 135.309 65.9388 135.854 65.5293 135.991C65.1197 136.127 71.8092 141.304 71.8092 141.304L73.5839 138.988L79.7273 147.981L81.9116 145.12C81.9116 145.12 81.502 139.397 81.502 139.124C81.502 138.852 87.5089 146.618 87.5089 146.618L91.6045 145.801C91.6045 145.801 96.5192 141.168 98.4304 143.348C100.342 145.528 102.663 141.032 102.663 141.032L106.212 142.258L110.171 142.395L109.352 144.302C109.352 144.302 102.799 143.212 102.116 145.665C101.434 148.117 94.8809 156.02 94.8809 156.02C94.8809 156.02 96.9287 158.472 98.1574 162.288C99.3861 166.103 97.4748 168.691 97.4748 168.691L98.9765 170.054L101.707 168.691L101.434 173.733V174.414L104.574 175.368L108.806 170.463L109.762 173.188L106.622 177.275L107.85 179.183L107.168 181.09L101.843 180.273L100.751 184.224L104.574 187.086L104.437 188.993L98.9765 192.945L99.7956 197.577L106.895 202.619L104.437 205.344L99.3861 198.667L97.2018 200.711L99.2496 203.845L96.9287 206.434L95.154 201.529C95.154 201.529 90.9219 199.485 89.6932 201.256C88.4645 203.027 86.2802 203.572 85.0515 202.074C83.8229 200.575 82.3212 198.531 82.3212 198.531C82.3212 198.531 80.0003 200.847 79.8638 201.256C79.7273 201.665 75.0856 201.529 75.0856 201.529L76.7239 197.986L70.1709 191.037L66.0753 194.852L70.0344 202.755L64.8467 209.022C64.8467 209.022 59.5224 212.429 59.5224 211.884C59.5224 211.339 61.7067 216.925 61.7067 216.925L69.2153 211.475L73.5839 217.061L73.7204 227.417L61.1606 238.317L55.1538 237.636L51.0582 242.677L40.0001 240.906L39.0445 250.852L41.7749 252.351L44.3688 256.847L50.3756 257.256L53.6521 253.577L59.7955 253.714L60.7511 262.843L65.2562 262.434L67.5771 260.254L70.717 261.208L73.0378 268.565L78.4986 273.198L83.0037 272.517L88.055 267.203L91.6045 268.02L94.1983 269.383L88.4645 274.015L86.4167 278.648C86.4167 278.648 86.6898 279.329 86.2802 279.329C85.8707 279.329 79.1812 280.828 79.1812 280.828L69.8979 274.969C69.8979 274.969 60.6146 275.514 60.3415 275.105C60.0685 274.697 56.1094 282.054 56.1094 282.054H52.833L50.9217 278.512L47.3722 281.918L49.0104 287.368L40.5462 293.636C40.5462 293.636 38.4984 292.818 37.9524 292.818C37.4063 292.818 35.495 297.042 35.495 297.042C35.495 297.042 30.9899 299.359 31.1264 299.086C31.2629 298.814 29.6247 303.037 29.6247 303.037L19.6588 303.174L15.5632 303.719L15.8362 307.534Z" fill="#6037AF"/>
<path d="M0 138.171L11.4676 152.75L17.884 152.614L19.1127 145.937L24.983 144.711L25.8022 151.932L30.3073 155.339L28.396 159.154L33.5838 160.653L35.0855 158.064L40.0002 161.606L43.2766 161.198L46.2801 155.611L55.0173 154.93L55.8364 142.803L49.9661 143.757L47.0992 142.667L53.5156 137.081L53.106 134.083L49.42 132.312L48.6009 127.952L49.42 122.365L42.4575 118.141H37.8159L35.9046 119.913L30.9899 118.278L28.396 123.183L24.71 122.502C24.71 122.502 22.3892 121.003 21.9796 121.003C21.5701 121.003 16.5188 130.541 16.5188 130.541L9.69288 129.996L12.0137 134.628L0 138.171Z" fill="#6037AF"/>
<path d="M155.915 240.795C147.344 240.795 140.365 247.738 140.365 256.274C140.36 259.709 141.511 263.047 143.635 265.756C143.648 265.768 143.648 265.78 143.66 265.792L154.59 279.975C154.59 279.987 154.602 279.999 154.614 280.011C154.763 280.182 154.939 280.325 155.137 280.435L155.209 280.471C155.314 280.518 155.423 280.555 155.535 280.58C155.783 280.644 156.042 280.644 156.29 280.58C156.401 280.555 156.511 280.518 156.615 280.471L156.688 280.435C156.885 280.325 157.062 280.182 157.211 280.011C157.223 279.999 157.223 279.987 157.235 279.975L168.17 265.799C168.182 265.786 168.182 265.774 168.194 265.762C170.318 263.054 171.469 259.716 171.465 256.28C171.465 247.738 164.486 240.795 155.915 240.795ZM163.222 263.548C161.532 265.229 159.308 266.276 156.93 266.509C154.551 266.742 152.165 266.147 150.178 264.826C148.191 263.505 146.725 261.539 146.032 259.264C145.338 256.988 145.459 254.544 146.373 252.347C147.288 250.15 148.94 248.336 151.047 247.215C153.155 246.094 155.588 245.735 157.932 246.199C160.276 246.663 162.386 247.921 163.903 249.759C165.419 251.597 166.248 253.902 166.248 256.28C166.251 257.63 165.986 258.968 165.467 260.215C164.947 261.463 164.184 262.596 163.222 263.548Z" fill="white"/>
</g>
<path d="M589.251 375.409C584.568 375.409 580.485 375.464 576.397 375.344C575.848 375.344 575.17 374.508 574.815 373.907C573.892 372.308 573.085 370.631 572.024 369.069C571.881 372.123 569.315 375.686 574.234 377.516C573.011 379.678 571.904 381.624 570.598 383.925L573.795 382.83C573.14 384.119 572.873 384.854 572.411 385.487C570.7 388.051 568.868 390.537 567.272 393.171C566.856 393.851 567.101 394.946 567.096 395.851C567.096 396.055 567.332 396.253 567.452 396.457C571.401 403.24 571.429 403.254 568.199 410.472C568.006 410.8 567.738 411.077 567.417 411.281C567.096 411.485 566.732 411.61 566.353 411.646C562.889 411.488 559.41 411.299 555.977 410.805C553.578 410.476 551.228 409.855 548.978 408.956C544.314 407.025 539.797 404.747 535.137 402.764C534.069 402.364 532.903 402.309 531.802 402.607C524.881 404.548 518.007 406.6 511.142 408.702C510.186 409.018 509.327 409.573 508.646 410.315C505.499 413.757 502.5 417.334 499.308 420.726C498.512 421.499 497.45 421.936 496.341 421.946C489.089 421.576 481.836 421.132 474.602 420.504C471.372 420.222 468.507 420.545 466.205 423.036C464.618 424.755 462.726 425.06 460.438 424.783C449.079 423.396 437.711 422.172 426.177 420.864C426.527 414.954 427.344 413.748 432.281 412.052L419.012 400.329L424.719 394.599C422.62 393.084 420.105 391.268 417.388 389.285C415.584 393.472 413.904 397.358 412.027 401.725C410.689 399.585 409.485 397.866 408.511 396.022C407.759 394.585 406.79 393.786 405.166 394.017C399.279 394.853 394.855 391.314 389.59 388.98L394.476 385.598L389.401 382.853L394.426 377.211C391.053 375.547 387.966 374.013 384.884 372.502C382.688 371.43 380.52 370.261 378.25 369.365C376.585 368.708 376.262 367.692 376.478 366.075C376.852 363.344 377.06 360.599 377.369 357.586L374.767 358.672L362.725 341.88C366.213 341.88 369.41 341.672 372.557 341.949C374.864 342.152 376.123 341.598 376.649 339.297C376.907 338.169 377.507 337.115 378.07 335.743L383.763 338.442C385.793 334.329 387.75 330.378 389.692 326.427C395.777 314.03 401.835 301.613 407.994 289.252C408.391 288.462 409.623 287.547 410.412 287.598C416.908 288.005 421.439 285.112 424.834 279.77C426.001 277.922 427.51 275.556 429.282 275.117C430.878 274.715 432.973 276.965 434.98 277.428C438.624 278.315 442.361 278.814 446.052 279.382C451.261 280.172 456.465 280.824 460.276 275.783C463.118 278.412 465.49 280.866 468.147 282.945C469.342 283.869 471.086 284.211 472.641 284.544C472.996 284.618 473.923 283.62 474.025 283.051C474.699 279.281 477.135 278.125 480.646 277.751C485.112 277.289 489.513 276.249 493.965 275.579C495.709 275.316 496.95 274.715 497.135 272.807C497.675 267.451 500.904 264.679 505.864 263.449C507.529 263.038 509.093 262.225 510.676 261.601C510.87 261.74 511.091 261.827 511.091 261.915C511.045 267.987 515.576 271.619 518.681 275.94C524.452 283.957 530.353 291.886 536.512 299.599C538.081 301.562 540.729 302.745 543.041 303.979C544.476 304.742 545.38 305.527 545.809 307.158C547.105 311.876 548.42 316.608 550.081 321.206C550.967 323.673 550.187 325.536 549.006 327.416C548.432 328.298 548.046 329.289 547.87 330.328C547.695 331.366 547.734 332.429 547.987 333.451C549.214 339.491 550.196 345.581 551.29 351.648C551.899 355.017 556.019 358.478 559.276 359.286C563.147 360.252 566.109 359.152 569.02 356.759C571.346 354.863 573.797 353.126 576.356 351.56C577.331 351.015 578.47 350.843 579.562 351.075C582.313 351.783 585.026 352.629 587.692 353.612C588.301 353.825 589.163 354.536 589.168 355.049C589.283 361.689 589.251 368.311 589.251 375.409Z" fill="#6037AF"/>
<path d="M459.51 247.582C451.301 247.582 444.618 254.257 444.618 262.464C444.613 265.767 445.716 268.976 447.75 271.58C447.761 271.592 447.761 271.603 447.773 271.615L458.241 285.251C458.241 285.263 458.253 285.275 458.264 285.286C458.407 285.45 458.576 285.588 458.765 285.694L458.835 285.728C458.935 285.773 459.039 285.808 459.147 285.833C459.384 285.895 459.632 285.895 459.869 285.833C459.976 285.808 460.081 285.773 460.181 285.728L460.25 285.694C460.44 285.588 460.609 285.45 460.751 285.286C460.763 285.275 460.763 285.263 460.775 285.251L471.247 271.621C471.259 271.61 471.259 271.598 471.271 271.586C473.305 268.982 474.407 265.773 474.403 262.47C474.403 254.257 467.719 247.582 459.51 247.582ZM466.508 269.457C464.89 271.074 462.76 272.08 460.482 272.304C458.204 272.528 455.919 271.956 454.016 270.686C452.113 269.416 450.709 267.526 450.045 265.338C449.38 263.15 449.496 260.8 450.372 258.688C451.248 256.576 452.83 254.832 454.848 253.754C456.867 252.677 459.197 252.331 461.442 252.777C463.687 253.223 465.708 254.433 467.16 256.2C468.612 257.967 469.406 260.183 469.406 262.469C469.41 263.767 469.156 265.054 468.658 266.253C468.161 267.453 467.43 268.542 466.508 269.457Z" fill="white"/>
<path d="M436.443 276.048C437.335 276.933 438.775 276.928 439.661 276.037C440.547 275.145 440.542 273.704 439.65 272.818L436.443 276.048ZM187.144 259.227C186.789 260.433 187.479 261.698 188.684 262.052L208.331 267.835C209.537 268.19 210.802 267.501 211.157 266.295C211.512 265.089 210.822 263.824 209.616 263.469L192.153 258.329L197.293 240.865C197.648 239.66 196.958 238.395 195.753 238.04C194.547 237.685 193.282 238.375 192.927 239.58L187.144 259.227ZM219.633 243.347L220.722 245.345L219.633 243.347ZM218.544 241.349L188.238 257.872L190.416 261.867L220.722 245.345L218.544 241.349ZM439.65 272.818C381.014 214.593 291.096 201.795 218.544 241.349L220.722 245.345C291.508 206.754 379.235 219.24 436.443 276.048L439.65 272.818Z" fill="white"/>
<defs>
<clipPath id="clip0_568_4094">
<rect width="203" height="315.001" fill="white" transform="translate(0 -0.000976562)"/>
</clipPath>
</defs>
</svg>
