<?xml version="1.0" encoding="utf-8"?>
<!-- Generator: Adobe Illustrator 27.8.0, SVG Export Plug-In . SVG Version: 6.00 Build 0)  -->
<svg version="1.1" id="Layer_1" xmlns="http://www.w3.org/2000/svg" xmlns:xlink="http://www.w3.org/1999/xlink" x="0px" y="0px"
	 viewBox="0 0 1000 1000" style="enable-background:new 0 0 1000 1000;" xml:space="preserve">
<style type="text/css">
	.st0{opacity:0.65;}
	.st1{fill:#FFFFFF;}
</style>
<g class="st0">
	<path class="st1" d="M381,452.8c-6.3-2.6-12.8-3.9-19.6-3.9c-20.7,0-39.3,12.4-47.2,31.5c-5.2,12.6-5.3,26.5,0,39.1
		c5.2,12.6,15,22.4,27.7,27.7c6.2,2.6,12.8,3.9,19.6,3.9c20.7,0,39.3-12.4,47.2-31.5c5.2-12.6,5.2-26.5,0-39.1
		C403.4,467.9,393.6,458,381,452.8z"/>
	<circle class="st1" cx="500" cy="500" r="51.1"/>
	<circle class="st1" cx="500" cy="638.6" r="51.1"/>
	<circle class="st1" cx="638.6" cy="500" r="51.1"/>
	<circle class="st1" cx="500" cy="361.4" r="51.1"/>
	<path class="st1" d="M854.9,350.1c-19.4-45.9-47.2-87.1-82.5-122.4c-35.4-35.4-76.6-63.1-122.4-82.5C602.5,125,552,114.8,500,114.8
		S397.5,125,350.1,145.1c-45.9,19.4-87.1,47.2-122.4,82.5c-35.4,35.4-63.1,76.6-82.5,122.4C125,397.5,114.8,448,114.8,500
		s10.2,102.5,30.3,149.9c19.4,45.9,47.2,87.1,82.5,122.4c35.4,35.4,76.6,63.1,122.4,82.5C397.5,875,448,885.2,500,885.2
		s102.5-10.2,149.9-30.3c45.9-19.4,87.1-47.2,122.4-82.5c35.4-35.4,63.1-76.6,82.5-122.4C875,602.5,885.2,552,885.2,500
		S875,397.5,854.9,350.1z M833,500c0,44.8-8.8,88.5-26.2,129.7c-17,39.9-41,75.5-71.4,105.8c-30.5,30.6-66.1,54.6-105.8,71.4
		C588.6,824.2,545,833,500,833c-44.8,0-88.5-8.8-129.7-26.2c-39.9-17-75.5-41-105.8-71.4c-30.6-30.5-54.6-66.1-71.4-105.8
		C175.8,588.6,167,545,167,500c0-44.9,8.8-88.5,26.3-129.6c16.8-39.8,40.8-75.4,71.3-105.8c30.5-30.6,66.1-54.6,105.8-71.4
		C411.4,175.8,455,167,500,167c44.9,0,88.5,8.8,129.6,26.2c39.6,16.7,75.2,40.7,105.9,71.4c30.6,30.5,54.6,66.1,71.4,105.8
		C824.2,411.4,833,455,833,500z"/>
</g>
</svg>
