<?xml version="1.0" encoding="UTF-8"?>
<svg id="Layer_1" data-name="Layer 1" xmlns="http://www.w3.org/2000/svg" viewBox="0 0 1000 1000">
  <defs>
    <style>
      .cls-1 {
        fill: #2e2c71;
      }

      .cls-2 {
        fill: #fff;
      }

      .cls-3 {
        fill: #391415;
      }

      .cls-4 {
        fill: #5e2311;
      }

      .cls-5 {
        fill: #e8af22;
      }

      .cls-6 {
        fill: #3f368b;
      }

      .cls-7 {
        fill: #ecc31c;
      }
    </style>
  </defs>
  <g>
    <g>
      <path class="cls-2" d="m38.1,615.5c1.15-.62,2.42-1.23,3.76-1.8l6.85,15.59c-.94.42-1.86.86-2.72,1.3l-7.89-15.09Z"/>
      <path class="cls-2" d="m45.22,621.53c-.97.44-2.01.93-3.09,1.48.98-.53,2.03-1.02,3.09-1.48m-6.71-15.66c-1.58.68-3.07,1.39-4.45,2.13l15.8,30.18c.74-.38,1.54-.76,2.37-1.13l-13.71-31.19h0Z"/>
    </g>
    <g>
      <path class="cls-2" d="m38.1,615.5c1.15-.62,2.42-1.23,3.76-1.8l6.85,15.59c-.94.42-1.86.86-2.72,1.3l-7.89-15.09Z"/>
      <path class="cls-2" d="m45.22,621.53c-.97.44-2.01.93-3.09,1.48.98-.53,2.03-1.02,3.09-1.48m-6.71-15.66c-1.58.68-3.07,1.39-4.45,2.13l15.8,30.18c.74-.38,1.54-.76,2.37-1.13l-13.71-31.19h0Z"/>
    </g>
    <g>
      <path class="cls-2" d="m38.1,615.5c1.15-.62,2.42-1.23,3.76-1.8l6.85,15.59c-.94.42-1.86.86-2.72,1.3l-7.89-15.09Z"/>
      <path class="cls-2" d="m45.22,621.53c-.97.44-2.01.93-3.09,1.48.98-.53,2.03-1.02,3.09-1.48m-6.71-15.66c-1.58.68-3.07,1.39-4.45,2.13l15.8,30.18c.74-.38,1.54-.76,2.37-1.13l-13.71-31.19h0Z"/>
    </g>
    <g>
      <path class="cls-2" d="m38.17,615.62c1.14-.62,2.41-1.22,3.77-1.8l6.86,15.59c-.95.43-1.87.87-2.73,1.3l-7.9-15.09Z"/>
      <path class="cls-2" d="m45.3,621.64c-.97.44-2.01.93-3.09,1.48.98-.53,2.03-1.02,3.09-1.48m-6.71-15.66c-1.58.68-3.07,1.39-4.45,2.13l15.8,30.18c.74-.38,1.54-.76,2.37-1.13l-13.71-31.19h0Z"/>
    </g>
    <g>
      <path class="cls-2" d="m38.13,615.61c1.15-.62,2.42-1.23,3.76-1.8l6.85,15.59c-.94.42-1.86.86-2.72,1.3l-7.89-15.09Z"/>
      <path class="cls-2" d="m45.25,621.64c-.97.44-2.01.93-3.09,1.48.98-.53,2.03-1.02,3.09-1.48m-6.71-15.66c-1.58.68-3.07,1.39-4.45,2.13l15.8,30.18c.74-.38,1.54-.76,2.37-1.13l-13.71-31.19h0Z"/>
    </g>
    <g>
      <path class="cls-2" d="m636.47,833.71c-91.19,0-174.62-26.13-210.25-37.29-41.05-12.85-83.41-26.12-134.57-54.86-8.77-4.93-16.83-9.77-24.62-14.45-27.72-16.65-51.66-31.03-88.63-37.15-11.32-1.87-35.96-4.99-54.05-7.1l-5.58-.64c-37.3-4.28-61.95-7.11-82.78-25.73-8.68-7.75-11.84-17.36-12.16-19.32-1.19-6.89.72-11.11,1.63-13.13l.11-.24c1.86-4.13,4.74-7.5,8.72-12.15l.21-.25.08-.08c.63-.72,2.5-2.84,4.56-4.89,45.71-45.41,122.72-63.19,125.98-63.93,30.88-6.96,70.6-11.7,99.6-15.17,14.34-1.71,25.67-3.07,31.37-4.14l.12-.02c.99-.17,3.53-.66,8.24-1.56,9.68-1.87,15.72-3.04,17.9-3.57l.69-.17c2.67-.65,4.14-1.01,6.16-1.66l.24-.08c7.72-2.45,12.08-3.93,14.88-6.75-.96-3.26-.54-7.32,1.29-11.81,4.12-11.18,8.11-20.41,13.3-30.84.17-.33.34-.68.51-1.04,1.42-2.91,3.36-6.89,6.56-9.94,1.12-1.07,2.48-1.83,3.96-2.24,2.06-3.69,5.21-9.55,8.11-14.92,4.53-8.4,9.66-17.92,14.54-26.66,3.83-6.85,10.23-15.34,16.41-23.55,4.97-6.6,10.12-13.43,12.18-17.25,7.5-13.94,89.44-112.44,125.06-137.01,2.91-2.01,6.54-4.72,10.75-7.86,18.93-14.13,50.61-37.77,83.79-46.5,2.05-.54,4.33-1.18,6.83-1.88,16.44-4.61,41.29-11.58,73.96-11.58,2.85,0,5.75.06,8.6.16,40.44,1.55,70.72,14.65,85.17,22.32,17.02,9,45.53,24.08,60.42,56.6,1.78,3.88,3.31,7.89,4.65,12.24.84,2.81.35,5.66-1.32,7.89-1.66,2.23-4.23,3.51-7.05,3.51-3.47,0-6.2-1.69-14.31-6.71-2.86-1.77-6.1-3.78-8.98-5.41-18.21-10.34-33.57-13.27-37.84-13.92-5-.76-11.23-1.71-17.99-1.71-9.23,0-17.45,1.76-25.14,5.37-13.47,6.35-20.82,16.35-24.78,21.72-9.59,13.09-30.94,71.13-39.78,102.08-8.54,29.95-7.15,56.11-6.69,64.7,0,.17,1.04,18.14,6.32,46.58.27,1.41.71,3.57,1.36,6.57,1.71,7.98,2.92,11.46,3.91,13.29,10.93,2.47,15.04,17.58,16.42,22.67,2.68,9.86,4.04,21.3,4.42,28.73.09,1.71.18,3.51.17,5.3,6.66,3.02,18.48,7.77,22.89,8.46,2.36.36,7.28,1.48,15.77,3.42l4.95,1.13c8.19,1.86,15.27,3.47,23.67,5.82,15.02,4.22,26.13,8.53,33.49,11.39,4.16,1.61,12.81,4.96,23.87,10.15l.49.23c8.28,3.92,16.84,7.96,27.07,14.34,12.56,7.84,21.19,15.22,28.12,21.14,10.07,8.6,18.76,16.03,28.11,27.89,6.32,7.99,10.37,14.79,15.98,24.19l.22.38c.94,1.59,1.83,3.07,2.67,4.47,4.63,7.72,8.29,13.82,11.09,21.29,7.01,18.7,9.36,36.43,9,43.51h.02c0,.46,0,1.37-.28,2.47-.43,1.75-3.89,14.47-14.26,23.9-13.18,12.02-29.15,13.41-40.02,13.41-9.65,0-19.98-1.25-30.92-2.58-12.66-1.53-25.76-3.12-39.86-3.12-2.03,0-4.05.03-6.01.1-25.79.87-41.42,7.17-61.21,15.15-7.26,2.93-14.78,5.96-23.39,8.95-37,12.85-78.76,19.36-124.13,19.37Z"/>
      <path class="cls-2" d="m721.57,174.81c2.71,0,5.46.05,8.28.16,42.45,1.63,72.59,16.6,81.5,21.33,17.36,9.18,43.27,23.36,56.67,52.62,1.95,4.24,3.29,8.08,4.26,11.2.08.25-.01.37-.24.37-1.69,0-11.22-6.55-19.09-11.01-17.24-9.79-32.95-13.74-40.75-14.93-5.3-.81-11.89-1.81-19.28-1.81-8.74,0-18.6,1.4-28.76,6.18-15.18,7.15-23.58,18.36-28.01,24.38-10.81,14.74-32.54,74.78-41.11,104.78-8.76,30.72-7.55,57.22-7,67.5,0,0,.98,18.25,6.45,47.68.21,1.1.59,2.99,1.4,6.79,2.95,13.78,4.92,16.62,7.59,19.4.3.31.62.39.94.39.34,0,.69-.09,1.05-.09.09,0,.17,0,.26.02,12.83,1.7,16.69,52.41,14.08,53.04-.04.02-.08.02-.09.04-.32.78,22.98,11.03,31,12.28,2.61.4,10.37,2.21,19.4,4.28,8.5,1.93,15.56,3.52,24,5.89,14.48,4.07,25.34,8.27,32.71,11.13,5.03,1.95,13.04,5.09,23.34,9.92,8.33,3.94,16.68,7.86,26.67,14.08,11.79,7.36,19.78,14.14,27.09,20.39,10.13,8.65,18.17,15.54,26.95,26.69,6.06,7.67,9.9,14.14,15.58,23.66,6.04,10.16,10.11,16.39,13.1,24.38,7.99,21.31,8.9,39.09,8.48,40.52,0,.19,0,.3-.02.36-.44,1.87-3.63,12.34-11.74,19.7-9.45,8.61-20.96,11.19-34.29,11.19-19.82,0-43.66-5.69-70.78-5.69-2.08,0-4.18.03-6.3.11-37.14,1.25-55.36,13.55-87.1,24.57-39.69,13.78-81.29,18.89-121.33,18.89-89.96,0-172.17-25.77-207.8-36.93-40.62-12.72-82.52-25.85-132.85-54.13-40.64-22.85-67-44.46-116.03-52.58-11.58-1.91-36.59-5.07-54.45-7.15-39.26-4.54-63.9-6.59-83.68-24.27-6.87-6.13-9.33-13.74-9.43-14.33-.81-4.69.44-7.02,1.12-8.56,1.34-2.99,3.71-5.75,7.42-10.09l.06-.06s2.04-2.38,4.32-4.64c44.5-44.21,121.86-61.67,121.86-61.67,45.86-10.33,112.88-15.88,130.68-19.25,1.08-.19,3.67-.68,8.38-1.59,10.68-2.06,16.01-3.1,18.28-3.65,3.18-.78,4.96-1.19,7.48-2.01,10.64-3.37,18.19-5.72,22.54-14.61,0-.04.02-.06.04-.09,0,0,.02-.04.04-.08,0,0,.04-.09.15-.28,0-.06-1.53-1.4-1.53-1.4-1.87-1.48.49-7.17.49-7.17,3.92-10.64,7.78-19.68,12.98-30.13,1.27-2.54,2.9-6.3,5.32-8.61.18-.17.43-.24.69-.24.79,0,1.79.59,2,.59.02,0,.03,0,.03-.01,1.34-1.21,14.29-26.23,25.44-46.16,6.79-12.15,23.7-31.72,28.66-40.92,6.89-12.8,88.47-110.63,122.4-134.04,16.6-11.45,53.22-42.97,91.87-53.13,15.03-3.95,42.03-13.18,78.62-13.18m0-17.03c-33.84,0-60.39,7.45-76.25,11.9-2.54.71-4.74,1.33-6.69,1.84-34.79,9.15-67.3,33.41-86.73,47.91-4.14,3.09-7.72,5.76-10.5,7.68-20.11,13.87-51.59,47.78-74.46,73.77-22.01,25.02-48.16,56.73-53.27,66.22-1.75,3.25-6.92,10.11-11.48,16.16-6.36,8.44-12.93,17.16-17.05,24.52-4.92,8.8-10.07,18.35-14.61,26.79-2.28,4.23-4.73,8.78-6.63,12.25-1.37.74-2.65,1.67-3.8,2.76-4.32,4.11-6.74,9.09-8.34,12.38-.16.33-.32.65-.47.95-5.33,10.7-9.41,20.15-13.63,31.58-1.48,3.68-2.26,7.25-2.35,10.59-1.75.74-4.38,1.63-8.45,2.92l-.19.06-.05.02-.05.02c-1.72.56-3,.87-5.54,1.49l-.74.18c-1.9.46-7.87,1.62-17.48,3.48-2.88.55-6.86,1.32-8.09,1.54l-.11.02-.11.02c-5.41,1.02-17.17,2.43-30.8,4.06-29.18,3.49-69.15,8.26-100.46,15.31-3.36.76-82.69,19.07-130.12,66.2-2.08,2.06-3.93,4.14-4.78,5.11l-.1.1-.42.49c-4.29,5.01-7.67,8.96-10.02,14.18v.03s-.03.03-.03.03l-.08.19c-1.82,4.02-3.72,9.72-2.25,18.2.89,5.07,5.65,15.9,14.87,24.13,22.85,20.42,49.96,23.53,87.49,27.84,1.83.21,3.68.42,5.58.64,17.98,2.1,42.44,5.19,53.64,7.04,35.36,5.86,57.54,19.18,85.63,36.05,7.84,4.71,15.95,9.58,24.82,14.57,51.94,29.18,94.73,42.58,136.11,55.54l.09.03c36,11.28,120.31,37.68,212.8,37.68,46.32,0,89.02-6.67,126.92-19.84,8.81-3.06,16.42-6.13,23.78-9.1,19.01-7.67,34.02-13.72,58.31-14.54,1.87-.06,3.8-.1,5.73-.1,13.59,0,26.43,1.55,38.84,3.06,11.2,1.36,21.78,2.64,31.94,2.64,12.28,0,30.39-1.62,45.76-15.64,11.57-10.51,15.84-24.61,16.69-27.8.44-1.59.57-2.97.61-3.91.22-2.96.08-7.93-1.29-16.46-1.15-7.16-3.52-18.35-8.26-30.98-3.07-8.2-6.9-14.59-11.76-22.68-.84-1.39-1.72-2.86-2.64-4.42l-.22-.37c-5.78-9.69-9.96-16.7-16.63-25.15-9.85-12.5-18.84-20.18-29.25-29.08-7.14-6.1-16.03-13.7-29.13-21.88-10.67-6.65-19.46-10.8-27.97-14.82l-.45-.21h-.03s-.03-.02-.03-.02c-11.34-5.32-20.17-8.74-24.42-10.38-7.04-2.73-18.83-7.31-34.25-11.64-8.61-2.41-15.78-4.04-24.08-5.93l-.75-.17-4.13-.95c-8.91-2.04-13.71-3.13-16.42-3.55-2.56-.43-9.81-3.16-15.86-5.69,0-.04,0-.07,0-.11-.2-3.82-1.12-17.3-4.71-30.52-1.55-5.7-5.83-21.42-18.16-27.17-.51-1.67-1.2-4.28-2.07-8.33-.62-2.9-1.06-5.05-1.32-6.39-5.16-27.76-6.17-45.28-6.18-45.45-.44-8.22-1.78-33.31,6.38-61.89,9.39-32.85,30.13-88.01,38.47-99.39,3.49-4.74,10.01-13.61,21.54-19.04,6.51-3.06,13.55-4.55,21.5-4.55,6.11,0,11.75.86,16.71,1.61,2.77.42,17.53,3.05,34.91,12.91,2.74,1.56,5.78,3.43,8.71,5.25,8.86,5.48,12.9,7.98,18.79,7.98,5.46,0,10.65-2.59,13.89-6.94,3.29-4.42,4.27-10.01,2.68-15.34l-.02-.08-.02-.08c-1.46-4.71-3.11-9.06-5.06-13.29-16.08-35.12-47.37-51.67-64.18-60.56-15.07-8-46.68-21.68-88.81-23.3-2.96-.11-5.97-.17-8.93-.17h0Z"/>
    </g>
    <g>
      <path class="cls-2" d="m38.1,615.5c1.15-.62,2.42-1.23,3.76-1.8l6.85,15.59c-.94.42-1.86.86-2.72,1.3l-7.89-15.09Z"/>
      <path class="cls-2" d="m45.22,621.53c-.97.44-2.01.93-3.09,1.48.98-.53,2.03-1.02,3.09-1.48m-6.71-15.66c-1.58.68-3.07,1.39-4.45,2.13l15.8,30.18c.74-.38,1.54-.76,2.37-1.13l-13.71-31.19h0Z"/>
    </g>
    <g>
      <path class="cls-2" d="m38.1,615.5c1.15-.62,2.42-1.23,3.76-1.8l6.85,15.59c-.94.42-1.86.86-2.72,1.3l-7.89-15.09Z"/>
      <path class="cls-2" d="m45.22,621.53c-.97.44-2.01.93-3.09,1.48.98-.53,2.03-1.02,3.09-1.48m-6.71-15.66c-1.58.68-3.07,1.39-4.45,2.13l15.8,30.18c.74-.38,1.54-.76,2.37-1.13l-13.71-31.19h0Z"/>
    </g>
  </g>
  <g>
    <path class="cls-1" d="m968.06,756.42c-.45,1.86-3.64,12.33-11.73,19.7-24.59,22.4-63.08,3.96-111.37,5.6-37.14,1.26-55.37,13.56-87.11,24.58-128.84,44.75-277.66-1.92-329.14-18.04-40.61-12.72-82.53-25.85-132.84-54.13-40.64-22.84-67.01-44.47-116.04-52.58-11.57-1.91-36.58-5.08-54.44-7.16-39.26-4.55-63.91-6.59-83.68-24.27-8.63-7.71-9.91-12.94-9.33-16.49,2.09-12.77,30.59-17.76,41.06-19.6,78.12-13.7,163.64,9.96,163.64,9.96,71.93,20.01,98.83,30.91,151.82,47.29,87.66,27.1,169.23,51.7,269.72,52.58,46.72.41,70.53.64,103.28-8.4,43.82-12.1,60.39-28.81,105.15-30.8,18.79-.83,46.05-1.68,70,15.87,19.38,14.2,28.89,34.28,30.16,45.8.7,6.35.97,9.67.87,10.1Z"/>
    <path class="cls-6" d="m959.59,715.54c8.31,22.17,8.96,40.54,8.43,40.62-.56.08-.34-20.55-13.86-38.51-5.87-7.8-13.88-14.11-14.94-14.95-.61-.48-7.4-5.73-15.61-9.7-18.48-8.96-38.35-8.66-51.42-8.35-6.23.15-24.36.94-46.89,7.65-15.36,4.58-17.87,7.47-37.38,14.6,0,0-20.81,7.61-43.75,12.87-7.7,1.77-28.72,6.15-84.99,4.3-25.56-.84-58.73-2.04-102.66-9.08-25.53-4.09-56.58-10.46-91.37-20.72-46.27-13.33-83.83-25.11-109.52-33.4-56.61-18.25-107.11-36.08-161.25-45.3,0,0-39-6.64-81.06-5.38-11.37.34-20.08,1.31-27.07,2.1,0,0-13.74,1.53-34.42,6.85,0,0-4.8,1.23-10.74,4.44-3.5,2.21-5.61,3.85-6.95,5.86-1.35,2.03-2.03,4.49-1.71,7.51-.46-4.37.27-8.16.97-9.71,1.35-2.99,3.71-5.75,7.42-10.09.02-.02.04-.05.04-.05,0,0,2.05-2.39,4.31-4.64,44.51-44.23,121.87-61.66,121.87-61.66,45.86-10.33,112.88-15.89,130.67-19.25,1.07-.2,3.66-.69,8.38-1.6,10.68-2.06,16.02-3.09,18.29-3.64,3.18-.77,4.95-1.2,7.49-2,10.64-3.37,18.18-5.73,22.53-14.62.02-.03.03-.06.04-.09,0,0,.01-.03.04-.07,0,0,.05-.1.15-.29,0-.05-1.52-1.39-1.52-1.39-1.88-1.48.49-7.18.49-7.18,3.91-10.64,7.78-19.69,12.99-30.12,1.27-2.54,2.89-6.3,5.32-8.62.77-.74,2.59.48,2.73.35,1.34-1.21,14.27-26.24,25.42-46.17,6.8-12.16,23.71-31.73,28.66-40.92,6.9-12.79,88.46-110.64,122.41-134.05,16.61-11.45,53.22-42.95,91.87-53.13,16.15-4.25,46.09-14.57,86.89-13.02,42.47,1.62,72.59,16.6,81.51,21.32,17.36,9.19,43.26,23.36,56.68,52.63,1.94,4.23,3.29,8.07,4.25,11.21.65,2.14.98,5.57.76,5.21-.84-1.37-11.16-10.8-20.08-15.86-17.24-9.78-32.95-13.73-40.75-14.92-11.57-1.76-29.28-4.46-48.03,4.37-15.19,7.15-23.6,18.36-28.01,24.38-10.81,14.75-32.54,74.78-41.11,104.78-8.77,30.71-7.56,57.21-7,67.5,0,0,.98,18.23,6.46,47.68.2,1.08.59,2.98,1.4,6.78,2.95,13.79,4.91,16.63,7.59,19.4.7.72,1.43.21,2.24.32,12.85,1.71,16.71,52.41,14.09,53.04-.03,0-.08.01-.09.04-.32.77,22.99,11.02,31.01,12.27,2.6.4,10.36,2.22,19.39,4.28,8.51,1.94,15.57,3.53,24,5.9,14.48,4.07,25.36,8.27,32.72,11.13,5.03,1.95,13.04,5.08,23.33,9.92,8.34,3.92,16.69,7.84,26.68,14.08,11.79,7.36,19.78,14.13,27.08,20.38,10.12,8.65,18.17,15.54,26.95,26.68,6.05,7.68,9.91,14.16,15.57,23.68,6.04,10.15,10.1,16.38,13.1,24.38Z"/>
    <path class="cls-4" d="m565.38,507.63l-9.1,54.79s37.19,2.32,38.27,2.41c17.06,1.4,17.4,1.15,29.87,1.61,18.61.7,47.54-.89,57.45-1.02,13.45-.17,25.01-1.99,38.04-2.25,1.09-.02.4-11.97.31-12.94-.88-10.44-3.11-21.09-3.74-22.89-1.43-4.07-.6-3.26-2.44-7.61-1.85-4.38-4.18-9.46-7.94-9.49-5.28-.04-46.39,1.07-55.48,1.07-4.56,0-40.9.68-64.89-1.56-.5-.05-20.36-2.06-20.36-2.13Z"/>
    <path class="cls-4" d="m447.7,485.59l-15.09,54.81s-5.2-1.13-6.24-1.46c-13.3-3.38-13.86-3.93-25.73-7.79-6.91-2.24-18.1-6.4-31.96-12.97-3.63-1.72-8.23-5.05-14.05-8.59-.11-.1-1.44-1.31-1.66-1.52-.06-.06-.39-.45-.48-.98-.21-1.22.02-2.42.18-3.06,1.17-4.26,2.77-8.22,4.61-12.58,1.85-4.38,3.26-7.77,4.83-11.18,1.44-3.26,3.32-6.69,5.14-10.64,1.91-4.14,3.91-7.19,4.98-7.54.25-.12.55-.05.83-.01,19.59,6.9,44.27,14.21,70.22,22.37.48.15,4.43,1.2,4.43,1.14Z"/>
    <path class="cls-1" d="m577.78,564.25c36.9,6.89,79.37,25.35,38.61,51.53-1.75,1.12,159.71,7.19,162.61,36.44,2.73,27.52-72.89,62.68-90.26,72.87-1.07.63,41.62-1.13,49.28-3.45,9.47-2.87,15.05-3.35,26.82-6.79,12.66-3.69,15.02-3.94,40.72-14.76,19.79-8.33,39.38-12.45,57.04-14.23.19-.02,1.06-.09,1.13-.09,1.2-.11,36.47-1.72,51.05,4.32,4.76,1.97,22.88,8.19,36.79,24.63,1.12,1.32,1.98,2.43,2.6,3.23,11.86,15.43,13.52,35.58,13.55,36.3.03.85.03,1.37.04,1.5.08.74.11,1.13.12,1.12,1.17-1.35-1.92-21.29-4.53-29.72-7.66-24.75-16.61-33.28-22.82-45.18-9.42-18.07-24.42-30.34-41.11-44.34-4.37-3.66-7.59-6.72-9.99-8.51-16.6-12.38-52.76-34.46-129.43-51.51-7.16-1.59-15.7-3.01-30.41-9.5,0,0-8.71-4.27-9.09-4.54-.68-.49-17.74,1.29-24.89,1.57-20.24.81-55.81,1.87-58.34,1.87-12.03,0-48.89-2.3-59.48-2.77Z"/>
    <g>
      <path class="cls-5" d="m566.56,495.02c.74,5.8-10.22,77.99-14.32,80.49-11.22,6.83-113.99-10.74-123.38-23.11-2.05-2.7,16.8-71.12,21.8-79.01,3.86-6.08,115.19,16.13,115.89,21.64Zm-26.55,65.96c5.56-12.48,11.65-50.44,10.01-54.63-2.74-7.05-75.55-19.72-87.27-18.17-7.5.99-18.08,49.93-17.61,53.71,1.19,9.5,92.06,25.4,94.87,19.09Z"/>
      <path class="cls-4" d="m550.03,506.34c1.63,4.19-4.46,42.15-10.01,54.63-2.81,6.3-93.67-9.59-94.87-19.09-.48-3.78,10.11-52.71,17.61-53.71,11.72-1.55,84.53,11.12,87.27,18.17Z"/>
    </g>
    <path class="cls-3" d="m641.55,511.61c-17.03.32-45.45-.61-58-1.84-.56-.06,8.22,16.23,7.92,26.38-.47,15.83-7.09,20.39-12.96,27.93-.2.25,5.83,3.12,60.69,2.93,20.37-.07,57.71-2.21,80.45-3.45,1.4-.08,1.46-11.67-1.42-27.65-2.72-15.12-6.25-23.94-11.81-25.3-1.06-.26-27.98.31-64.86.99Z"/>
    <path class="cls-7" d="m542.39,562.41s4.83.72,6,.76c1.92.07,12.04-53.4,10.03-58.62-.66-.49-6.72.03-5.79.14,3.11.38-9.09,56.72-10.24,57.71Z"/>
    <path class="cls-1" d="m872.92,265.13c-.84-.91-4.89-3.27-10.03-7.34-10.76-8.54-20.4-12.31-28.78-15.66-18.13-7.24-38.12-8.62-49.9-7.36-33.99,3.61-50.54,31.4-56.9,46.42-3.96,9.36-11.78,26.04-23.51,60.79-11.67,34.57-13.5,46.65-14.67,57.18-.41,3.65-2.8,19.85-.91,40.42,1.57,17.01,1.08,12.54,4.18,32.79,2.49,16.3,5.43,29.71,8.58,34.52,1.61,2.46,2.65,3.51,2.97,3.61,0,0-32.16.48-60.21.82-34.15.41-60.12-1.48-60.21-1.53-1.39-.85,35.53-1.83,46.29-28.23,1.01-2.47,3.41-7.04,2.59-25.08-1.52-33.37,3.93-58.67,7.6-74.86,2.19-9.67,9.04-36.62,24.46-69.67,14.46-30.99,24.13-51.1,46.25-68.39,6.86-5.37,23.36-17.96,48.34-22.61,23.36-4.35,42.14.49,52.86,3.25,15.96,4.11,26.57,9.92,32.69,13.33,6.47,3.6,13.1,7.7,19.47,14.84,4.79,5.37,8.06,11.4,8.83,12.77Z"/>
    <path class="cls-7" d="m459.08,477.43s-4.95-.09-6.12-.05c-4.21.14-22.35,68.58-19.09,68.51.62.55,6.19,4.42,5.27,4.25-4.3-.78,14.89-72.83,19.95-72.71Z"/>
  </g>
</svg>